<svg width="50" height="50" viewBox="0 0 50 50" fill="none" xmlns="http://www.w3.org/2000/svg">
<circle cx="25" cy="25" r="25" fill="#FC7203"/>
<path d="M26.1318 15.5068C26.437 15.5372 26.7236 15.6719 26.9424 15.8906L27.0312 15.9883C27.2256 16.2255 27.3329 16.5237 27.333 16.833V24.667H35.167C35.5205 24.6671 35.8594 24.8076 36.1094 25.0576L36.1982 25.1553C36.3925 25.3925 36.5 25.6907 36.5 26C36.5 26.3535 36.3593 26.6923 36.1094 26.9424C35.8594 27.1924 35.5205 27.3329 35.167 27.333H27.333V35.167C27.3329 35.5205 27.1924 35.8594 26.9424 36.1094C26.6923 36.3593 26.3535 36.5 26 36.5C25.6907 36.5 25.3925 36.3925 25.1553 36.1982L25.0576 36.1094C24.8076 35.8594 24.6671 35.5205 24.667 35.167V27.333H16.833C16.5237 27.3329 16.2255 27.2256 15.9883 27.0312L15.8906 26.9424C15.6407 26.6923 15.5 26.3535 15.5 26C15.5 25.6465 15.6407 25.3076 15.8906 25.0576L15.9883 24.9688C16.2255 24.7744 16.5237 24.6671 16.833 24.667H24.667V16.833C24.6671 16.4795 24.8076 16.1406 25.0576 15.8906L25.1553 15.8018C25.3925 15.6075 25.6907 15.5 26 15.5L26.1318 15.5068Z" fill="black" stroke="black"/>
<path d="M26.1318 15.5068C26.437 15.5372 26.7236 15.6719 26.9424 15.8906L27.0312 15.9883C27.2256 16.2255 27.3329 16.5237 27.333 16.833V24.667H35.167C35.5205 24.6671 35.8594 24.8076 36.1094 25.0576L36.1982 25.1553C36.3925 25.3925 36.5 25.6907 36.5 26C36.5 26.3535 36.3593 26.6923 36.1094 26.9424C35.8594 27.1924 35.5205 27.3329 35.167 27.333H27.333V35.167C27.3329 35.5205 27.1924 35.8594 26.9424 36.1094C26.6923 36.3593 26.3535 36.5 26 36.5C25.6907 36.5 25.3925 36.3925 25.1553 36.1982L25.0576 36.1094C24.8076 35.8594 24.6671 35.5205 24.667 35.167V27.333H16.833C16.5237 27.3329 16.2255 27.2256 15.9883 27.0312L15.8906 26.9424C15.6407 26.6923 15.5 26.3535 15.5 26C15.5 25.6465 15.6407 25.3076 15.8906 25.0576L15.9883 24.9688C16.2255 24.7744 16.5237 24.6671 16.833 24.667H24.667V16.833C24.6671 16.4795 24.8076 16.1406 25.0576 15.8906L25.1553 15.8018C25.3925 15.6075 25.6907 15.5 26 15.5L26.1318 15.5068Z" fill="black" stroke="black"/>
</svg>
