<svg width="15" height="14" viewBox="0 0 15 14" fill="none" xmlns="http://www.w3.org/2000/svg">
<path d="M13.7281 8H8.48262V13C8.48262 13.2652 8.37209 13.5196 8.17534 13.7071C7.9786 13.8946 7.71176 14 7.43352 14C7.15528 14 6.88844 13.8946 6.6917 13.7071C6.49495 13.5196 6.38442 13.2652 6.38442 13V8H1.13894C0.860703 8 0.593861 7.89464 0.397117 7.70711C0.200373 7.51957 0.0898438 7.26522 0.0898438 7C0.0898438 6.73478 0.200373 6.48043 0.397117 6.29289C0.593861 6.10536 0.860703 6 1.13894 6H6.38442V1C6.38442 0.734784 6.49495 0.480429 6.6917 0.292893C6.88844 0.105357 7.15528 0 7.43352 0C7.71176 0 7.9786 0.105357 8.17534 0.292893C8.37209 0.480429 8.48262 0.734784 8.48262 1V6H13.7281C14.0063 6 14.2732 6.10536 14.4699 6.29289C14.6667 6.48043 14.7772 6.73478 14.7772 7C14.7772 7.26522 14.6667 7.51957 14.4699 7.70711C14.2732 7.89464 14.0063 8 13.7281 8Z" fill="#8C8C8C"/>
</svg>
