<svg width="40" height="40" viewBox="0 0 40 40" fill="none" xmlns="http://www.w3.org/2000/svg">
<path d="M22.25 13.25L29 20M29 20L22.25 26.75M29 20H11M30.8 38H9.2C6.67978 38 5.41955 38 4.457 37.5095C3.61032 37.0782 2.92183 36.3897 2.4905 35.543C2 34.5805 2 33.3202 2 30.8V9.2C2 6.67977 2 5.41964 2.4905 4.45705C2.92183 3.6103 3.61032 2.92189 4.457 2.49048C5.41955 2 6.67978 2 9.2 2H30.8C33.3202 2 34.5804 2 35.543 2.49048C36.3897 2.92189 37.0781 3.6103 37.5095 4.45705C38 5.41964 38 6.67975 38 9.2V30.8C38 33.3202 38 34.5805 37.5095 35.543C37.0781 36.3897 36.3897 37.0782 35.543 37.5095C34.5804 38 33.3202 38 30.8 38Z" stroke="#D8E6EC" stroke-width="3" stroke-linecap="round" stroke-linejoin="round"/>
</svg>
