<svg width="25" height="24" viewBox="0 0 25 24" fill="none" xmlns="http://www.w3.org/2000/svg">
<path d="M20.656 9.53055L13.156 17.0306C13.0864 17.1003 13.0037 17.1556 12.9126 17.1933C12.8216 17.2311 12.724 17.2505 12.6254 17.2505C12.5269 17.2505 12.4293 17.2311 12.3382 17.1933C12.2472 17.1556 12.1644 17.1003 12.0948 17.0306L4.59479 9.53055C4.45406 9.38982 4.375 9.19895 4.375 8.99993C4.375 8.80091 4.45406 8.61003 4.59479 8.4693C4.73552 8.32857 4.92639 8.24951 5.12542 8.24951C5.32444 8.24951 5.51531 8.32857 5.65604 8.4693L12.6254 15.4396L19.5948 8.4693C19.6645 8.39962 19.7472 8.34435 19.8382 8.30663C19.9293 8.26892 20.0269 8.24951 20.1254 8.24951C20.224 8.24951 20.3215 8.26892 20.4126 8.30663C20.5036 8.34435 20.5864 8.39962 20.656 8.4693C20.7257 8.53899 20.781 8.62171 20.8187 8.71276C20.8564 8.8038 20.8758 8.90138 20.8758 8.99993C20.8758 9.09847 20.8564 9.19606 20.8187 9.2871C20.781 9.37815 20.7257 9.46087 20.656 9.53055Z" fill="white"/>
</svg>
