<svg width="37" height="37" viewBox="0 0 37 37" fill="none" xmlns="http://www.w3.org/2000/svg">
<path d="M24.6873 21.5938V12.3125M24.6873 12.3125H15.406M24.6873 12.3125L12.3125 24.6873M8.60002 35H28.4C30.7102 35 31.8654 35 32.7477 34.5504C33.5239 34.155 34.155 33.5239 34.5506 32.7478C35 31.8654 35 30.7102 35 28.4V8.6C35 6.28979 35 5.13467 34.5506 4.25229C34.155 3.47611 33.5239 2.84507 32.7477 2.4496C31.8654 2 30.7102 2 28.4 2H8.60002C6.28981 2 5.1347 2 4.2523 2.4496C3.47614 2.84507 2.84509 3.47611 2.44961 4.25229C2 5.13467 2 6.28977 2 8.6V28.4C2 30.7102 2 31.8654 2.44961 32.7478C2.84509 33.5239 3.47614 34.155 4.2523 34.5504C5.1347 35 6.28981 35 8.60002 35Z" stroke="#D8E6EC" stroke-width="3" stroke-linecap="round" stroke-linejoin="round"/>
</svg>
