<svg width="40" height="40" viewBox="0 0 40 40" fill="none" xmlns="http://www.w3.org/2000/svg">
<path d="M17.75 13.25L11 20M11 20L17.75 26.75M11 20H29M9.2 38H30.8C33.3202 38 34.5805 38 35.543 37.5095C36.3897 37.0782 37.0782 36.3897 37.5095 35.543C38 34.5805 38 33.3202 38 30.8V9.2C38 6.67977 38 5.41964 37.5095 4.45705C37.0782 3.6103 36.3897 2.92189 35.543 2.49048C34.5805 2 33.3202 2 30.8 2H9.2C6.67977 2 5.41964 2 4.45705 2.49048C3.6103 2.92189 2.92189 3.6103 2.49048 4.45705C2 5.41964 2 6.67975 2 9.2V30.8C2 33.3202 2 34.5805 2.49048 35.543C2.92189 36.3897 3.6103 37.0782 4.45705 37.5095C5.41964 38 6.67975 38 9.2 38Z" stroke="#D8E6EC" stroke-width="3" stroke-linecap="round" stroke-linejoin="round"/>
</svg>
