<svg width="24" height="24" viewBox="0 0 24 24" fill="none" xmlns="http://www.w3.org/2000/svg">
<path d="M9.53104 3.96896L17.031 11.469C17.1008 11.5386 17.1561 11.6213 17.1938 11.7124C17.2316 11.8034 17.251 11.901 17.251 11.9996C17.251 12.0981 17.2316 12.1957 17.1938 12.2868C17.1561 12.3778 17.1008 12.4606 17.031 12.5302L9.53104 20.0302C9.39031 20.1709 9.19944 20.25 9.00042 20.25C8.80139 20.25 8.61052 20.1709 8.46979 20.0302C8.32906 19.8895 8.25 19.6986 8.25 19.4996C8.25 19.3006 8.32906 19.1097 8.46979 18.969L15.4401 11.9996L8.46979 5.03021C8.40011 4.96052 8.34483 4.8778 8.30712 4.78675C8.26941 4.69571 8.25 4.59813 8.25 4.49958C8.25 4.40104 8.26941 4.30345 8.30712 4.21241C8.34483 4.12136 8.40011 4.03864 8.46979 3.96896C8.53947 3.89927 8.6222 3.844 8.71324 3.80629C8.80429 3.76858 8.90187 3.74916 9.00042 3.74916C9.09896 3.74916 9.19654 3.76858 9.28759 3.80629C9.37863 3.844 9.46136 3.89927 9.53104 3.96896Z" fill="black"/>
</svg>
