<svg width="32" height="33" viewBox="0 0 32 33" fill="none" xmlns="http://www.w3.org/2000/svg">
<path d="M21 11.2998H27C28.1 11.2998 29 12.1998 29 13.2998V27.2998C29 28.3998 28.1 29.2998 27 29.2998H5C3.9 29.2998 3 28.3998 3 27.2998V13.2998C3 12.1998 3.9 11.2998 5 11.2998H11" stroke="#D8E6EC" stroke-width="2" stroke-miterlimit="10" stroke-linecap="round" stroke-linejoin="round"/>
<path d="M8 16.2998L16 23.2998L24 16.2998" stroke="#D8E6EC" stroke-width="2" stroke-miterlimit="10" stroke-linecap="round" stroke-linejoin="round"/>
<path d="M12.6 20.2998L8 24.2998" stroke="#D8E6EC" stroke-width="2" stroke-miterlimit="10" stroke-linecap="round" stroke-linejoin="round"/>
<path d="M23.9984 24.2998L19.3984 20.2998" stroke="#D8E6EC" stroke-width="2" stroke-miterlimit="10" stroke-linecap="round" stroke-linejoin="round"/>
<path d="M12.5 5.8998C11.1 5.8998 10 7.0998 10 8.4998C10 9.8998 11.1 11.0998 12.5 11.0998C14.7 11.0998 16.9 11.5998 18.9 12.5998L20.9 13.5998V7.7998V3.2998L18.9 4.2998C17 5.2998 14.8 5.8998 12.5 5.8998Z" stroke="#D8E6EC" stroke-width="2" stroke-miterlimit="10" stroke-linecap="round" stroke-linejoin="round"/>
<path d="M11 10.4994L13.4 15.2994H15.9V5.89941" stroke="#D8E6EC" stroke-width="2" stroke-miterlimit="10" stroke-linecap="round" stroke-linejoin="round"/>
</svg>
