<svg width="32" height="32" viewBox="0 0 32 32" fill="none" xmlns="http://www.w3.org/2000/svg">
<path d="M21.4363 17.05V22.6462C21.4363 23.1412 21.3813 23.6087 21.2575 24.035C20.7488 26.0562 19.0712 27.3213 16.7612 27.3213H13.0213L8.86875 30.085C8.25 30.5112 7.425 30.0575 7.425 29.315V27.3213C6.0225 27.3213 4.85375 26.8538 4.0425 26.0425C3.2175 25.2175 2.75 24.0487 2.75 22.6462V17.05C2.75 14.4375 4.3725 12.6363 6.875 12.4025C7.05375 12.3888 7.2325 12.375 7.425 12.375H16.7612C19.5662 12.375 21.4363 14.245 21.4363 17.05Z" fill="#D8E6EC"/>
<path d="M24.4062 21.45C26.1525 21.45 27.6237 20.8725 28.6412 19.8413C29.6725 18.8237 30.25 17.3525 30.25 15.6063V8.59375C30.25 5.3625 27.6375 2.75 24.4062 2.75H12.7187C9.4875 2.75 6.875 5.3625 6.875 8.59375V9.625C6.875 10.01 7.1775 10.3125 7.5625 10.3125H16.7612C20.4875 10.3125 23.4987 13.3237 23.4987 17.05V20.7625C23.4987 21.1475 23.8012 21.45 24.1862 21.45H24.4062Z" fill="#D8E6EC"/>
</svg>
