<svg width="27" height="24" viewBox="0 0 27 24" fill="none" xmlns="http://www.w3.org/2000/svg">
<path fill-rule="evenodd" clip-rule="evenodd" d="M13.6003 24C20.9972 24 26.9936 18.6274 26.9936 12C26.9936 5.37258 20.9972 0 13.6003 0C6.20341 0 0.207031 5.37258 0.207031 12C0.207031 18.6274 6.20341 24 13.6003 24ZM9.13589 10.6667C9.95777 10.6667 10.624 10.0697 10.624 9.33333C10.624 8.59695 9.95777 8 9.13589 8C8.31401 8 7.64775 8.59695 7.64775 9.33333C7.64775 10.0697 8.31401 10.6667 9.13589 10.6667ZM18.0648 10.6667C18.8866 10.6667 19.5529 10.0697 19.5529 9.33333C19.5529 8.59695 18.8866 8 18.0648 8C17.2429 8 16.5766 8.59695 16.5766 9.33333C16.5766 10.0697 17.2429 10.6667 18.0648 10.6667ZM13.6003 18.6667C16.8878 18.6667 19.5529 16.2789 19.5529 13.3333H7.64775C7.64775 16.2789 10.3128 18.6667 13.6003 18.6667Z" fill="black" fill-opacity="0.66"/>
</svg>
