<svg width="88" height="88" viewBox="0 0 88 88" fill="none" xmlns="http://www.w3.org/2000/svg">
<path d="M77 16.5H11C10.2707 16.5 9.57118 16.7897 9.05546 17.3055C8.53973 17.8212 8.25 18.5207 8.25 19.25V66C8.25 67.4587 8.82946 68.8576 9.86091 69.8891C10.8924 70.9205 12.2913 71.5 13.75 71.5H74.25C75.7087 71.5 77.1076 70.9205 78.1391 69.8891C79.1705 68.8576 79.75 67.4587 79.75 66V19.25C79.75 18.5207 79.4603 17.8212 78.9445 17.3055C78.4288 16.7897 77.7293 16.5 77 16.5ZM33.9316 44L13.75 62.4972V25.5028L33.9316 44ZM38.0016 47.7297L42.1266 51.5281C42.6339 51.9939 43.2975 52.2523 43.9862 52.2523C44.675 52.2523 45.3386 51.9939 45.8459 51.5281L49.9709 47.7297L69.9084 66H18.0709L38.0016 47.7297ZM54.0684 44L74.25 25.4994V62.5006L54.0684 44Z" fill="white"/>
</svg>
