<svg width="32" height="32" viewBox="0 0 37 37" fill="none" xmlns="http://www.w3.org/2000/svg">
<path opacity="1" d="M2 18.8364C2 15.0606 2 13.1726 2.85668 11.6075C3.71336 10.0424 5.27847 9.07109 8.40865 7.12841L11.7086 5.08034C15.0175 3.02678 16.672 2 18.5 2C20.328 2 21.9825 3.02678 25.2914 5.08034L28.5914 7.1284C31.7216 9.07109 33.2866 10.0424 34.1433 11.6075C35 13.1726 35 15.0606 35 18.8364V21.3463C35 27.7826 35 31.0009 33.0669 33.0004C31.1339 35 28.0225 35 21.8 35H15.2C8.97745 35 5.8662 35 3.93309 33.0004C2 31.0009 2 27.7826 2 21.3463V18.8364Z" stroke="#D8E6EC" stroke-width="3"/>
<path d="M13.6875 24.6875C15.0517 25.9875 16.7107 26.75 18.5 26.75C20.2893 26.75 21.9483 25.9875 23.3125 24.6875" stroke="#D8E6EC" stroke-width="3" stroke-linecap="round"/>
</svg>
