<svg width="15" height="15" viewBox="0 0 15 15" fill="none" xmlns="http://www.w3.org/2000/svg">
<g clip-path="url(#clip0_152_606)">
<path d="M13.659 6.83307C13.6399 6.78986 13.1767 5.76228 12.1469 4.73252C10.7748 3.36041 9.04177 2.63525 7.13427 2.63525C5.22677 2.63525 3.49373 3.36041 2.12162 4.73252C1.09185 5.76228 0.62646 6.7915 0.609506 6.83307C0.584631 6.88902 0.571777 6.94957 0.571777 7.0108C0.571777 7.07203 0.584631 7.13258 0.609506 7.18853C0.628647 7.23174 1.09185 8.25877 2.12162 9.28854C3.49373 10.6601 5.22677 11.3853 7.13427 11.3853C9.04177 11.3853 10.7748 10.6601 12.1469 9.28854C13.1767 8.25877 13.6399 7.23174 13.659 7.18853C13.6839 7.13258 13.6968 7.07203 13.6968 7.0108C13.6968 6.94957 13.6839 6.88902 13.659 6.83307ZM7.13427 9.19775C6.70163 9.19775 6.2787 9.06946 5.91896 8.82909C5.55923 8.58873 5.27885 8.24709 5.11329 7.84737C4.94772 7.44766 4.9044 7.00783 4.9888 6.58349C5.07321 6.15916 5.28155 5.76939 5.58748 5.46346C5.8934 5.15753 6.28318 4.94919 6.70751 4.86479C7.13185 4.78038 7.57168 4.8237 7.97139 4.98927C8.37111 5.15483 8.71275 5.43521 8.95311 5.79494C9.19348 6.15468 9.32177 6.57761 9.32177 7.01025C9.32177 7.59042 9.0913 8.14681 8.68107 8.55705C8.27083 8.96729 7.71443 9.19775 7.13427 9.19775Z" fill="black"/>
</g>
<defs>
<clipPath id="clip0_152_606">
<rect width="14" height="14" fill="white" transform="translate(0.134277 0.0102539)"/>
</clipPath>
</defs>
</svg>
