<svg width="24" height="24" viewBox="0 0 24 24" fill="none" xmlns="http://www.w3.org/2000/svg">
<path d="M21.5599 11.688C21.5569 14.0091 20.7053 16.249 19.1655 17.9857C17.6257 19.7225 15.504 20.8362 13.2 21.1172C13.1487 21.123 13.0967 21.1179 13.0476 21.1022C12.9984 21.0864 12.9531 21.0604 12.9147 21.0259C12.8763 20.9914 12.8457 20.9492 12.8248 20.9019C12.8039 20.8547 12.7933 20.8036 12.7936 20.752V13.8796H14.9852C15.0853 13.8798 15.1845 13.8594 15.2764 13.8197C15.3683 13.78 15.4511 13.7219 15.5196 13.6488C15.5882 13.5758 15.6409 13.4894 15.6746 13.3951C15.7084 13.3008 15.7224 13.2006 15.7157 13.1007C15.6996 12.9128 15.6129 12.7381 15.4732 12.6115C15.3334 12.485 15.1509 12.416 14.9624 12.4186H12.7936V10.227C12.7936 9.83951 12.9476 9.46789 13.2216 9.19389C13.4956 8.9199 13.8672 8.76596 14.2547 8.76596H15.7157C15.8159 8.76618 15.915 8.74581 16.0069 8.70611C16.0989 8.66641 16.1817 8.60823 16.2502 8.53518C16.3187 8.46214 16.3714 8.37578 16.4052 8.28149C16.4389 8.1872 16.4529 8.08697 16.4462 7.98705C16.4301 7.79888 16.3432 7.62384 16.203 7.49724C16.0628 7.37065 15.8799 7.30192 15.6911 7.30493H14.2547C13.4797 7.30493 12.7365 7.61279 12.1885 8.16078C11.6405 8.70878 11.3326 9.45202 11.3326 10.227V12.4186H9.14104C9.04089 12.4183 8.94177 12.4387 8.84983 12.4784C8.75789 12.5181 8.6751 12.5763 8.60659 12.6493C8.53808 12.7224 8.48533 12.8087 8.4516 12.903C8.41787 12.9973 8.40389 13.0976 8.41052 13.1975C8.42668 13.3856 8.5136 13.5607 8.65375 13.6873C8.79391 13.8139 8.97686 13.8826 9.1657 13.8796H11.3326V20.7538C11.3329 20.8053 11.3223 20.8564 11.3015 20.9035C11.2807 20.9507 11.2501 20.9929 11.2118 21.0274C11.1735 21.0619 11.1284 21.0879 11.0793 21.1037C11.0302 21.1195 10.9784 21.1247 10.9272 21.119C8.56151 20.831 6.39024 19.6652 4.8431 17.8526C3.29596 16.04 2.48572 13.7125 2.57276 11.331C2.75539 6.39999 6.7495 2.39127 11.6842 2.19951C12.9617 2.15002 14.2362 2.35872 15.4312 2.81311C16.6263 3.26751 17.7174 3.95827 18.6394 4.84408C19.5614 5.72988 20.2952 6.79254 20.797 7.96849C21.2988 9.14443 21.5583 10.4095 21.5599 11.688Z" fill="white"/>
</svg>
