<svg width="29" height="30" viewBox="0 0 29 30" fill="none" xmlns="http://www.w3.org/2000/svg">
<path d="M14.5 0.0712891C11.6322 0.0712891 8.82875 0.921699 6.44424 2.51498C4.05972 4.10826 2.20122 6.37285 1.10375 9.02238C0.00628267 11.6719 -0.280866 14.5874 0.27862 17.4001C0.838105 20.2128 2.2191 22.7965 4.24696 24.8243C6.27482 26.8522 8.85847 28.2332 11.6712 28.7927C14.4839 29.3522 17.3994 29.065 20.0489 27.9675C22.6984 26.8701 24.963 25.0116 26.5563 22.6271C28.1496 20.2425 29 17.4391 29 14.5713C28.9955 10.727 27.4663 7.04154 24.748 4.32325C22.0297 1.60495 18.3442 0.0758242 14.5 0.0712891ZM14.5 26.4349C12.1536 26.4349 9.85989 25.7391 7.90892 24.4355C5.95796 23.1319 4.43737 21.2791 3.53943 19.1113C2.6415 16.9435 2.40656 14.5581 2.86433 12.2568C3.32209 9.95549 4.45199 7.84159 6.11115 6.18243C7.77031 4.52327 9.8842 3.39337 12.1855 2.93561C14.4868 2.47785 16.8722 2.71279 19.04 3.61072C21.2078 4.50865 23.0607 6.02924 24.3643 7.9802C25.6678 9.93117 26.3636 12.2249 26.3636 14.5713C26.3598 17.7165 25.1087 20.7319 22.8846 22.9559C20.6606 25.1799 17.6453 26.4311 14.5 26.4349ZM15.8182 20.5031V23.1395H13.1818V20.5031H15.8182ZM19.7727 11.2758C19.7742 12.0664 19.5971 12.8471 19.2547 13.5596C18.9124 14.2722 18.4135 14.8983 17.7955 15.3912C16.797 16.1649 16.1219 17.2821 15.9012 18.5258H13.2227C13.3392 17.5096 13.6581 16.5269 14.1605 15.6358C14.6628 14.7447 15.3385 13.9633 16.1477 13.3375C16.4725 13.0776 16.7311 12.7445 16.9025 12.3655C17.0739 11.9866 17.1532 11.5724 17.1339 11.1569C17.1146 10.7414 16.9973 10.3364 16.7915 9.97494C16.5858 9.61347 16.2974 9.30581 15.95 9.07711C15.5628 8.82402 15.1173 8.6742 14.6558 8.6419C14.1944 8.60959 13.7323 8.69588 13.3136 8.89256C12.867 9.10662 12.4922 9.44583 12.2348 9.86893C11.9774 10.292 11.8484 10.7808 11.8636 11.2758C11.8636 11.6254 11.7248 11.9607 11.4776 12.2079C11.2303 12.4551 10.8951 12.594 10.5455 12.594C10.1959 12.594 9.86057 12.4551 9.61336 12.2079C9.36616 11.9607 9.22728 11.6254 9.22728 11.2758C9.20767 10.2627 9.4872 9.26632 10.0309 8.41125C10.5746 7.55618 11.3584 6.8804 12.2841 6.46842C13.1048 6.10168 14.0046 5.94747 14.9005 6.02004C15.7964 6.09261 16.6596 6.38961 17.4105 6.88365C18.1361 7.36399 18.7316 8.01644 19.1437 8.78281C19.5559 9.54919 19.772 10.4057 19.7727 11.2758Z" fill="#D8E6EC"/>
</svg>
