<svg width="22" height="22" viewBox="0 0 22 22" fill="none" xmlns="http://www.w3.org/2000/svg">
<path d="M10.9987 5.04143L10.5033 5.51819C10.6329 5.65285 10.8118 5.72893 10.9987 5.72893C11.1856 5.72893 11.3644 5.65285 11.4941 5.51819L10.9987 5.04143ZM8.63924 16.7943C7.24989 15.699 5.73068 14.6295 4.52546 13.2723C3.34382 11.9417 2.51953 10.3891 2.51953 8.37486H1.14453C1.14453 10.8182 2.16249 12.6823 3.49736 14.1853C4.80866 15.6619 6.48024 16.8431 7.788 17.8741L8.63924 16.7943ZM2.51953 8.37486C2.51953 6.40323 3.63362 4.74983 5.15436 4.05469C6.63176 3.37938 8.61689 3.55822 10.5033 5.51819L11.4941 4.56467C9.25566 2.23908 6.65745 1.85579 4.58273 2.80415C2.55135 3.7327 1.14453 5.8888 1.14453 8.37486H2.51953ZM7.788 17.8741C8.25754 18.2442 8.76161 18.639 9.27243 18.9374C9.78311 19.2358 10.3658 19.4784 10.9987 19.4784V18.1034C10.7149 18.1034 10.381 17.9927 9.96616 17.7503C9.55156 17.508 9.12144 17.1744 8.63924 16.7943L7.788 17.8741ZM14.2094 17.8741C15.5171 16.8431 17.1888 15.6619 18.5001 14.1853C19.8349 12.6823 20.8529 10.8182 20.8529 8.37486H19.4779C19.4779 10.3891 18.6536 11.9417 17.4719 13.2723C16.2667 14.6295 14.7475 15.699 13.3582 16.7943L14.2094 17.8741ZM20.8529 8.37486C20.8529 5.8888 19.4461 3.7327 17.4146 2.80415C15.3399 1.85579 12.7417 2.23908 10.5033 4.56467L11.4941 5.51819C13.3805 3.55822 15.3656 3.37938 16.843 4.05469C18.3637 4.74983 19.4779 6.40323 19.4779 8.37486H20.8529ZM13.3582 16.7943C12.8759 17.1744 12.4458 17.508 12.0312 17.7503C11.6164 17.9927 11.2825 18.1034 10.9987 18.1034V19.4784C11.6316 19.4784 12.2143 19.2358 12.725 18.9374C13.2358 18.639 13.7398 18.2442 14.2094 17.8741L13.3582 16.7943Z" fill="#D8E6EC"/>
</svg>
