<svg width="15" height="14" viewBox="0 0 15 14" fill="none" xmlns="http://www.w3.org/2000/svg">
<path d="M2.88827 5.34194V0.655851C2.88827 0.502887 2.8275 0.356189 2.71934 0.248028C2.61118 0.139866 2.46448 0.0791016 2.31152 0.0791016C2.15856 0.0791016 2.01186 0.139866 1.9037 0.248028C1.79554 0.356189 1.73477 0.502887 1.73477 0.655851V5.34194C1.23853 5.469 0.798685 5.7576 0.484587 6.16225C0.170488 6.56691 0 7.06459 0 7.57684C0 8.08909 0.170488 8.58677 0.484587 8.99143C0.798685 9.39608 1.23853 9.68468 1.73477 9.81174V13.3443C1.73477 13.4973 1.79554 13.644 1.9037 13.7522C2.01186 13.8603 2.15856 13.9211 2.31152 13.9211C2.46448 13.9211 2.61118 13.8603 2.71934 13.7522C2.8275 13.644 2.88827 13.4973 2.88827 13.3443V9.81174C3.38451 9.68468 3.82435 9.39608 4.13845 8.99143C4.45255 8.58677 4.62304 8.08909 4.62304 7.57684C4.62304 7.06459 4.45255 6.56691 4.13845 6.16225C3.82435 5.7576 3.38451 5.469 2.88827 5.34194ZM2.31152 8.73034C2.08338 8.73034 1.86036 8.66269 1.67067 8.53594C1.48098 8.40919 1.33313 8.22904 1.24583 8.01826C1.15852 7.80749 1.13568 7.57556 1.18019 7.3518C1.22469 7.12805 1.33455 6.92251 1.49587 6.76119C1.65719 6.59987 1.86273 6.49001 2.08648 6.44551C2.31024 6.401 2.54217 6.42384 2.75294 6.51115C2.96372 6.59845 3.14387 6.7463 3.27062 6.93599C3.39737 7.12568 3.46502 7.3487 3.46502 7.57684C3.46502 7.88277 3.34349 8.17616 3.12717 8.39249C2.91084 8.60881 2.61745 8.73034 2.31152 8.73034ZM8.07901 1.88144V0.655851C8.07901 0.502887 8.01825 0.356189 7.91009 0.248028C7.80192 0.139866 7.65522 0.0791016 7.50226 0.0791016C7.3493 0.0791016 7.2026 0.139866 7.09444 0.248028C6.98628 0.356189 6.92551 0.502887 6.92551 0.655851V1.88144C6.42927 2.0085 5.98943 2.29711 5.67533 2.70176C5.36123 3.10641 5.19074 3.60409 5.19074 4.11635C5.19074 4.6286 5.36123 5.12628 5.67533 5.53093C5.98943 5.93558 6.42927 6.22419 6.92551 6.35125V13.3443C6.92551 13.4973 6.98628 13.644 7.09444 13.7522C7.2026 13.8603 7.3493 13.9211 7.50226 13.9211C7.65522 13.9211 7.80192 13.8603 7.91009 13.7522C8.01825 13.644 8.07901 13.4973 8.07901 13.3443V6.35125C8.57525 6.22419 9.0151 5.93558 9.32919 5.53093C9.64329 5.12628 9.81378 4.6286 9.81378 4.11635C9.81378 3.60409 9.64329 3.10641 9.32919 2.70176C9.0151 2.29711 8.57525 2.0085 8.07901 1.88144ZM7.50226 5.26984C7.27412 5.26984 7.0511 5.20219 6.86141 5.07544C6.67172 4.9487 6.52387 4.76854 6.43657 4.55777C6.34926 4.347 6.32642 4.11507 6.37093 3.89131C6.41544 3.66755 6.5253 3.46202 6.68662 3.3007C6.84794 3.13938 7.05347 3.02952 7.27723 2.98501C7.50098 2.9405 7.73291 2.96335 7.94369 3.05065C8.15446 3.13796 8.33461 3.2858 8.46136 3.4755C8.58811 3.66519 8.65576 3.8882 8.65576 4.11635C8.65576 4.42227 8.53423 4.71567 8.31791 4.93199C8.10158 5.14831 7.80819 5.26984 7.50226 5.26984ZM15 9.88384C14.9995 9.37237 14.8294 8.87552 14.5163 8.47109C14.2032 8.06667 13.7648 7.77752 13.2698 7.64893V0.655851C13.2698 0.502887 13.209 0.356189 13.1008 0.248028C12.9927 0.139866 12.846 0.0791016 12.693 0.0791016C12.54 0.0791016 12.3933 0.139866 12.2852 0.248028C12.177 0.356189 12.1163 0.502887 12.1163 0.655851V7.64893C11.62 7.77599 11.1802 8.0646 10.8661 8.46925C10.552 8.8739 10.3815 9.37158 10.3815 9.88384C10.3815 10.3961 10.552 10.8938 10.8661 11.2984C11.1802 11.7031 11.62 11.9917 12.1163 12.1187V13.3443C12.1163 13.4973 12.177 13.644 12.2852 13.7522C12.3933 13.8603 12.54 13.9211 12.693 13.9211C12.846 13.9211 12.9927 13.8603 13.1008 13.7522C13.209 13.644 13.2698 13.4973 13.2698 13.3443V12.1187C13.7648 11.9902 14.2032 11.701 14.5163 11.2966C14.8294 10.8922 14.9995 10.3953 15 9.88384ZM12.693 11.0373C12.4649 11.0373 12.2418 10.9697 12.0522 10.8429C11.8625 10.7162 11.7146 10.536 11.6273 10.3253C11.54 10.1145 11.5172 9.88256 11.5617 9.6588C11.6062 9.43504 11.716 9.22951 11.8774 9.06819C12.0387 8.90687 12.2442 8.79701 12.468 8.7525C12.6917 8.70799 12.9237 8.73084 13.1344 8.81814C13.3452 8.90545 13.5254 9.05329 13.6521 9.24299C13.7788 9.43268 13.8465 9.6557 13.8465 9.88384C13.8465 10.1898 13.725 10.4832 13.5086 10.6995C13.2923 10.9158 12.9989 11.0373 12.693 11.0373Z" fill="#FC7203"/>
</svg>
