<svg width="33" height="33" viewBox="0 0 33 33" fill="none" xmlns="http://www.w3.org/2000/svg">
<path d="M29.1628 19.3875C29.1628 18.7041 28.6474 18.15 28.0116 18.15H23.407C22.7712 18.15 22.2558 18.7041 22.2558 19.3875V30.525H19.9535V3.7125C19.9535 2.51079 19.951 1.734 19.8795 1.16165C19.8123 0.624888 19.7039 0.456654 19.6163 0.362456C19.5286 0.268257 19.3722 0.15175 18.8729 0.0795794C18.3405 0.00262339 17.6179 0 16.5 0C15.3821 0 14.6595 0.00262339 14.1271 0.0795794C13.6278 0.15175 13.4713 0.268257 13.3837 0.362456C13.2961 0.456654 13.1877 0.624888 13.1205 1.16165C13.049 1.734 13.0465 2.51079 13.0465 3.7125V30.525H10.7442V11.1375C10.7442 10.4541 10.2288 9.9 9.59302 9.9H4.98837C4.35261 9.9 3.83721 10.4541 3.83721 11.1375V30.525H1.53488H1.15116C0.515399 30.525 0 31.0791 0 31.7625C0 32.4459 0.515399 33 1.15116 33H31.8488C32.4846 33 33 32.4459 33 31.7625C33 31.0791 32.4846 30.525 31.8488 30.525H31.4651H29.1628V19.3875Z" fill="#D8E6EC"/>
</svg>
