<svg width="20" height="20" viewBox="0 0 20 20" fill="none" xmlns="http://www.w3.org/2000/svg">
<path d="M14.0713 0.191406H5.30504C3.94927 0.192857 2.64944 0.732079 1.69076 1.69076C0.732079 2.64944 0.192857 3.94927 0.191406 5.30504V14.0713C0.192857 15.4271 0.732079 16.7269 1.69076 17.6856C2.64944 18.6442 3.94927 19.1835 5.30504 19.1849H14.0713C15.4271 19.1835 16.7269 18.6442 17.6856 17.6856C18.6442 16.7269 19.1835 15.4271 19.1849 14.0713V5.30504C19.1835 3.94927 18.6442 2.64944 17.6856 1.69076C16.7269 0.732079 15.4271 0.192857 14.0713 0.191406ZM9.68816 14.0713C8.82126 14.0713 7.97383 13.8142 7.25303 13.3326C6.53223 12.851 5.97044 12.1664 5.63869 11.3655C5.30694 10.5646 5.22014 9.6833 5.38926 8.83306C5.55839 7.98281 5.97584 7.20182 6.58883 6.58883C7.20182 5.97584 7.98281 5.55839 8.83306 5.38926C9.6833 5.22014 10.5646 5.30694 11.3655 5.63869C12.1664 5.97044 12.851 6.53223 13.3326 7.25303C13.8142 7.97383 14.0713 8.82126 14.0713 9.68816C14.0701 10.8503 13.6079 11.9644 12.7862 12.7862C11.9644 13.6079 10.8503 14.0701 9.68816 14.0713ZM15.1671 5.30504C14.9503 5.30504 14.7385 5.24078 14.5583 5.12037C14.3781 4.99996 14.2376 4.82883 14.1547 4.6286C14.0717 4.42837 14.05 4.20805 14.0923 3.99549C14.1346 3.78293 14.239 3.58768 14.3922 3.43443C14.5455 3.28118 14.7407 3.17682 14.9533 3.13454C15.1658 3.09226 15.3862 3.11396 15.5864 3.1969C15.7866 3.27983 15.9578 3.42028 16.0782 3.60048C16.1986 3.78068 16.2628 3.99254 16.2628 4.20926C16.2628 4.49988 16.1474 4.7786 15.9419 4.9841C15.7364 5.18959 15.4577 5.30504 15.1671 5.30504ZM12.6102 9.68816C12.6102 10.2661 12.4389 10.831 12.1178 11.3116C11.7967 11.7921 11.3403 12.1666 10.8064 12.3878C10.2724 12.609 9.68492 12.6668 9.11809 12.5541C8.55126 12.4413 8.0306 12.163 7.62194 11.7544C7.21328 11.3457 6.93498 10.8251 6.82223 10.2582C6.70948 9.6914 6.76735 9.10387 6.98851 8.56993C7.20968 8.03599 7.58421 7.57962 8.06474 7.25854C8.54527 6.93746 9.11023 6.76608 9.68816 6.76608C10.4631 6.76608 11.2064 7.07394 11.7544 7.62194C12.3024 8.16993 12.6102 8.91318 12.6102 9.68816Z" fill="white"/>
</svg>
