<?xml version="1.0" encoding="UTF-8"?>
<!DOCTYPE svg PUBLIC "-//W3C//DTD SVG 1.1//EN" "http://www.w3.org/Graphics/SVG/1.1/DTD/svg11.dtd">
<svg xmlns="http://www.w3.org/2000/svg" version="1.1" width="583px" height="302px" style="shape-rendering:geometricPrecision; text-rendering:geometricPrecision; image-rendering:optimizeQuality; fill-rule:evenodd; clip-rule:evenodd" xmlns:xlink="http://www.w3.org/1999/xlink">
<g><path style="opacity:0.966" fill="#ea8c40" d="M 175.5,113.5 C 178.812,118.804 182.479,123.804 186.5,128.5C 189.978,135.459 192.311,142.793 193.5,150.5C 198.875,150.172 204.208,150.505 209.5,151.5C 199.432,165.97 191.765,181.637 186.5,198.5C 182.601,203.284 178.934,208.284 175.5,213.5C 147.431,241.021 114.098,249.855 75.5,240C 47.7246,231.55 28.2246,214.05 17,187.5C 7.1197,145.099 21.2864,113.599 59.5,93C 83.1219,82.7243 107.455,80.7243 132.5,87C 149.35,92.07 163.684,100.903 175.5,113.5 Z M 175.5,142.5 C 175.5,145.167 175.5,147.833 175.5,150.5C 172.428,150.183 169.428,150.516 166.5,151.5C 169.528,156.85 172.528,162.184 175.5,167.5C 175.5,173.167 175.5,178.833 175.5,184.5C 166.7,204.796 151.7,218.296 130.5,225C 96.2077,234.748 66.7077,226.915 42,201.5C 40.5787,199.595 39.412,197.595 38.5,195.5C 23.7658,172.153 24.5992,149.153 41,126.5C 66.8899,99.6521 97.7233,91.8188 133.5,103C 153.194,110.197 167.194,123.363 175.5,142.5 Z"/></g>
<g><path style="opacity:0.955" fill="#ea8c40" d="M 423.5,140.5 C 423.5,142.5 423.5,144.5 423.5,146.5C 423.667,159.171 423.5,171.838 423,184.5C 421.264,191.237 417.097,195.737 410.5,198C 393.5,198.667 376.5,198.667 359.5,198C 354.091,196.09 350.091,192.59 347.5,187.5C 334.841,197.668 321.174,199.168 306.5,192C 293.617,179.042 291.117,164.208 299,147.5C 309.953,134.055 323.453,130.888 339.5,138C 341.96,139.458 344.127,141.291 346,143.5C 347.036,137.484 350.036,132.817 355,129.5C 355.333,122.5 355.667,115.5 356,108.5C 360.561,89.3046 372.728,81.1379 392.5,84C 404.978,87.4794 412.145,95.6461 414,108.5C 414.333,115.5 414.667,122.5 415,129.5C 418.811,132.47 421.645,136.137 423.5,140.5 Z M 381.5,93.5 C 392.268,92.7871 399.435,97.4538 403,107.5C 403.5,113.825 403.666,120.158 403.5,126.5C 391.167,126.5 378.833,126.5 366.5,126.5C 366.109,119.079 366.609,111.746 368,104.5C 371.193,99.1319 375.693,95.4652 381.5,93.5 Z M 363.5,136.5 C 366.518,136.335 369.518,136.502 372.5,137C 369.339,138.413 366.339,140.08 363.5,142C 365.458,144.748 367.291,147.582 369,150.5C 375.955,145.137 383.789,143.304 392.5,145C 397.843,146.674 400.176,150.34 399.5,156C 399.333,157.833 399.167,159.667 399,161.5C 388.429,156.098 377.929,156.264 367.5,162C 359.668,169.158 358.002,177.492 362.5,187C 359.506,186.642 357.673,184.808 357,181.5C 356.333,168.833 356.333,156.167 357,143.5C 358.018,139.985 360.185,137.652 363.5,136.5 Z M 400.5,137.5 C 406.267,135.798 410.434,137.798 413,143.5C 413.667,156.167 413.667,168.833 413,181.5C 412.333,182.833 411.667,184.167 411,185.5C 410.667,172.5 410.333,159.5 410,146.5C 408.256,141.921 405.09,138.921 400.5,137.5 Z M 318.5,144.5 C 329.841,142.192 337.175,146.526 340.5,157.5C 329.181,158.666 317.848,158.832 306.5,158C 308.285,151.389 312.285,146.889 318.5,144.5 Z M 382.5,166.5 C 387.565,166.9 392.565,167.733 397.5,169C 400.448,174.864 399.114,179.864 393.5,184C 387.504,187.461 381.504,187.794 375.5,185C 368.405,175.215 370.739,169.048 382.5,166.5 Z M 306.5,168.5 C 319.833,168.5 333.167,168.5 346.5,168.5C 346.665,171.518 346.498,174.518 346,177.5C 345,176.833 344,176.167 343,175.5C 335.746,185.69 326.246,188.524 314.5,184C 309.044,180.254 306.377,175.088 306.5,168.5 Z"/></g>
<g><path style="opacity:1" fill="#413e4c" d="M 186.5,128.5 C 182.479,123.804 178.812,118.804 175.5,113.5C 175.5,107.167 175.5,100.833 175.5,94.5C 179.167,94.5 182.833,94.5 186.5,94.5C 186.5,105.833 186.5,117.167 186.5,128.5 Z"/></g>
<g><path style="opacity:0.925" fill="#403e4c" d="M 210.5,94.5 C 214.167,94.5 217.833,94.5 221.5,94.5C 221.5,137.167 221.5,179.833 221.5,222.5C 217.833,222.5 214.167,222.5 210.5,222.5C 210.5,179.833 210.5,137.167 210.5,94.5 Z"/></g>
<g><path style="opacity:0.954" fill="#403e4b" d="M 127.5,134.5 C 142.364,132.542 151.198,138.875 154,153.5C 154.5,167.496 154.667,181.496 154.5,195.5C 150.833,195.5 147.167,195.5 143.5,195.5C 143.911,181.116 143.411,166.783 142,152.5C 140.163,147.407 136.496,144.74 131,144.5C 124.092,144.747 119.425,148.081 117,154.5C 116.5,168.163 116.333,181.829 116.5,195.5C 112.833,195.5 109.167,195.5 105.5,195.5C 105.5,175.5 105.5,155.5 105.5,135.5C 109.167,135.5 112.833,135.5 116.5,135.5C 116.337,137.857 116.503,140.19 117,142.5C 119.855,138.789 123.355,136.123 127.5,134.5 Z"/></g>
<g><path style="opacity:0.958" fill="#403e4c" d="M 508.5,134.5 C 524.303,132.81 533.137,139.81 535,155.5C 535.5,168.829 535.667,182.163 535.5,195.5C 531.5,195.5 527.5,195.5 523.5,195.5C 523.667,181.163 523.5,166.829 523,152.5C 521.035,147.259 517.202,144.592 511.5,144.5C 504.843,144.998 500.343,148.332 498,154.5C 497.5,168.163 497.333,181.829 497.5,195.5C 493.833,195.5 490.167,195.5 486.5,195.5C 486.5,175.5 486.5,155.5 486.5,135.5C 490.167,135.5 493.833,135.5 497.5,135.5C 497.337,137.857 497.503,140.19 498,142.5C 500.855,138.789 504.355,136.123 508.5,134.5 Z"/></g>
<g><path style="opacity:0.959" fill="#403e4c" d="M 38.5,195.5 C 50.2828,179.211 62.2828,163.044 74.5,147C 63.8385,146.5 53.1719,146.333 42.5,146.5C 42.5,142.833 42.5,139.167 42.5,135.5C 59.8461,135.167 77.1795,135.5 94.5,136.5C 82.9554,152.422 71.2887,168.256 59.5,184C 70.1667,184.333 80.8333,184.667 91.5,185C 92.4558,188.394 92.7892,191.894 92.5,195.5C 74.5,195.5 56.5,195.5 38.5,195.5 Z"/></g>
<g><path style="opacity:0.954" fill="#403e4c" d="M 238.5,135.5 C 255.846,135.167 273.179,135.5 290.5,136.5C 279.026,152.474 267.36,168.307 255.5,184C 266.495,184.5 277.495,184.667 288.5,184.5C 288.5,188.167 288.5,191.833 288.5,195.5C 270.821,195.833 253.154,195.5 235.5,194.5C 246.974,178.526 258.64,162.693 270.5,147C 259.839,146.5 249.172,146.333 238.5,146.5C 238.5,142.833 238.5,139.167 238.5,135.5 Z"/></g>
<g><path style="opacity:0.961" fill="#403e4c" d="M 423.5,146.5 C 423.5,144.5 423.5,142.5 423.5,140.5C 423.5,138.833 423.5,137.167 423.5,135.5C 440.846,135.167 458.179,135.5 475.5,136.5C 463.955,152.422 452.289,168.256 440.5,184C 451.161,184.5 461.828,184.667 472.5,184.5C 472.5,188.167 472.5,191.833 472.5,195.5C 454.83,195.667 437.164,195.5 419.5,195C 431.289,179.256 442.955,163.422 454.5,147.5C 444.188,146.501 433.855,146.168 423.5,146.5 Z"/></g>
<g><path style="opacity:1" fill="#48424b" d="M 175.5,142.5 C 177.655,144.617 178.655,147.284 178.5,150.5C 177.5,150.5 176.5,150.5 175.5,150.5C 175.5,147.833 175.5,145.167 175.5,142.5 Z"/></g>
<g><path style="opacity:1" fill="#44414b" d="M 175.5,167.5 C 177.441,169.199 178.774,171.366 179.5,174C 178.589,177.145 177.755,180.312 177,183.5C 176.617,184.056 176.117,184.389 175.5,184.5C 175.5,178.833 175.5,173.167 175.5,167.5 Z"/></g>
<g><path style="opacity:1" fill="#413e4c" d="M 186.5,198.5 C 186.5,206.5 186.5,214.5 186.5,222.5C 182.833,222.5 179.167,222.5 175.5,222.5C 175.5,219.5 175.5,216.5 175.5,213.5C 178.934,208.284 182.601,203.284 186.5,198.5 Z"/></g>
</svg>
