<svg width="583" height="302" viewBox="0 0 583 302" fill="none" xmlns="http://www.w3.org/2000/svg">
<path d="M76.1594 146.22H43.5194V136.62H94.7194L58.2394 185.9H92.1594V195.5H39.6794L76.1594 146.22ZM143.994 159.66C143.994 154.796 142.928 151.127 140.794 148.652C138.661 146.177 135.546 144.94 131.45 144.94C128.464 144.94 125.818 145.58 123.514 146.86C121.296 148.055 119.546 149.761 118.266 151.98C117.072 154.199 116.474 156.759 116.474 159.66V195.5H106.234V136.62H116.474V145.836C118.437 142.252 120.869 139.607 123.77 137.9C126.757 136.193 130.17 135.34 134.01 135.34C140.24 135.34 145.146 137.431 148.73 141.612C152.4 145.708 154.234 151.297 154.234 158.38V195.5H143.994V159.66ZM176.684 95.02H186.156V223.02H176.684V95.02ZM211.809 95.02H221.281V223.02H211.809V95.02ZM272.534 146.22H239.894V136.62H291.094L254.614 185.9H288.534V195.5H236.054L272.534 146.22ZM457.034 146.22H424.394V136.62H475.594L439.114 185.9H473.034V195.5H420.554L457.034 146.22ZM524.869 159.66C524.869 154.796 523.803 151.127 521.669 148.652C519.536 146.177 516.421 144.94 512.325 144.94C509.339 144.94 506.693 145.58 504.389 146.86C502.171 148.055 500.421 149.761 499.141 151.98C497.947 154.199 497.349 156.759 497.349 159.66V195.5H487.109V136.62H497.349V145.836C499.312 142.252 501.744 139.607 504.645 137.9C507.632 136.193 511.045 135.34 514.885 135.34C521.115 135.34 526.021 137.431 529.605 141.612C533.275 145.708 535.109 151.297 535.109 158.38V195.5H524.869V159.66Z" fill="white"/>
<path d="M323.518 196.78C318.057 196.78 313.193 195.5 308.926 192.94C304.745 190.295 301.46 186.668 299.07 182.06C296.766 177.452 295.614 172.119 295.614 166.06C295.614 159.916 296.809 154.54 299.198 149.932C301.673 145.324 305.086 141.74 309.438 139.18C313.876 136.62 318.996 135.34 324.798 135.34C330.601 135.34 335.55 136.577 339.646 139.052C343.828 141.441 347.028 144.897 349.246 149.42C351.465 153.943 352.574 159.319 352.574 165.548C352.574 166.145 352.532 166.785 352.446 167.468C352.446 168.065 352.446 168.449 352.446 168.62H302.142V159.916H344.382L340.286 165.804C340.542 165.377 340.798 164.737 341.054 163.884C341.31 162.945 341.438 162.177 341.438 161.58C341.438 158.081 340.713 155.052 339.262 152.492C337.897 149.932 335.977 147.927 333.502 146.476C331.028 145.025 328.126 144.3 324.798 144.3C320.873 144.3 317.502 145.153 314.686 146.86C311.956 148.481 309.822 150.871 308.286 154.028C306.836 157.1 306.068 160.897 305.982 165.42C305.982 170.028 306.708 173.953 308.158 177.196C309.609 180.439 311.742 182.913 314.558 184.62C317.374 186.327 320.788 187.18 324.798 187.18C328.809 187.18 332.35 186.327 335.422 184.62C338.494 182.828 341.097 180.14 343.23 176.556L351.55 181.804C348.478 186.753 344.596 190.508 339.902 193.068C335.294 195.543 329.833 196.78 323.518 196.78ZM371.217 177.324C371.217 179.543 371.729 181.463 372.753 183.084C373.863 184.705 375.356 185.943 377.233 186.796C379.196 187.564 381.415 187.948 383.889 187.948C387.047 187.948 389.863 187.308 392.337 186.028C394.897 184.748 396.903 182.956 398.353 180.652C399.889 178.263 400.657 175.532 400.657 172.46L402.705 180.14C402.705 183.895 401.553 187.009 399.249 189.484C397.031 191.959 394.257 193.793 390.929 194.988C387.687 196.183 384.444 196.78 381.201 196.78C377.617 196.78 374.247 196.055 371.089 194.604C368.017 193.068 365.543 190.892 363.665 188.076C361.788 185.26 360.849 181.847 360.849 177.836C360.849 172.119 362.855 167.553 366.865 164.14C370.961 160.641 376.636 158.892 383.889 158.892C388.156 158.892 391.697 159.404 394.513 160.428C397.415 161.367 399.719 162.476 401.425 163.756C403.132 164.951 404.284 165.932 404.881 166.7V172.716C401.895 170.668 398.823 169.217 395.665 168.364C392.508 167.425 389.137 166.956 385.553 166.956C382.225 166.956 379.495 167.383 377.361 168.236C375.313 169.089 373.777 170.284 372.753 171.82C371.729 173.356 371.217 175.191 371.217 177.324ZM369.681 150.188L364.689 142.636C366.908 141.015 369.937 139.393 373.777 137.772C377.703 136.151 382.396 135.34 387.857 135.34C392.465 135.34 396.476 136.065 399.889 137.516C403.388 138.881 406.076 140.887 407.953 143.532C409.916 146.177 410.897 149.42 410.897 153.26V195.5H400.657V154.668C400.657 152.62 400.316 150.956 399.633 149.676C398.951 148.311 397.969 147.244 396.689 146.476C395.495 145.708 394.087 145.153 392.465 144.812C390.844 144.471 389.137 144.3 387.345 144.3C384.444 144.3 381.799 144.641 379.409 145.324C377.105 146.007 375.143 146.817 373.521 147.756C371.9 148.695 370.62 149.505 369.681 150.188Z" fill="#EB8D41"/>
<path d="M104.5 91C151.452 91 188 124.47 188 164C188 203.53 151.452 237 104.5 237C57.5479 237 21 203.53 21 164C21 124.47 57.5479 91 104.5 91Z" stroke="#EB8D41" stroke-width="14"/>
<path d="M188.5 188L209.718 151.25L167.282 151.25L188.5 188Z" fill="#EB8D41"/>
<path d="M404.667 199H366.333C355.792 199 347.167 190.375 347.167 179.833V146.292C347.167 135.75 355.792 127.125 366.333 127.125H404.667C415.208 127.125 423.833 135.75 423.833 146.292V179.833C423.833 190.375 415.208 199 404.667 199ZM366.333 136.708C361.062 136.708 356.75 141.021 356.75 146.292V179.833C356.75 185.104 361.062 189.417 366.333 189.417H404.667C409.937 189.417 414.25 185.104 414.25 179.833V146.292C414.25 141.021 409.937 136.708 404.667 136.708H366.333Z" fill="#EB8D41"/>
<path d="M409.458 136.708H361.542C358.667 136.708 356.75 134.792 356.75 131.917V112.75C356.75 96.9375 369.688 84 385.5 84C401.792 84 414.25 96.9375 414.25 112.75V131.917C414.25 134.792 412.333 136.708 409.458 136.708ZM366.333 127.125H404.667V112.75C404.667 102.208 396.042 93.5833 385.5 93.5833C374.958 93.5833 366.333 102.208 366.333 112.75V127.125Z" fill="#EB8D41"/>
</svg>
