<svg width="67" height="67" viewBox="0 0 67 67" fill="none" xmlns="http://www.w3.org/2000/svg">
<path d="M33.4987 15.3558L31.9901 16.8077C32.3848 17.2178 32.9295 17.4495 33.4987 17.4495C34.0679 17.4495 34.6126 17.2178 35.0073 16.8077L33.4987 15.3558ZM26.3131 51.1485C22.0819 47.813 17.4552 44.5557 13.7848 40.4226C10.1861 36.3703 7.67578 31.642 7.67578 25.5076H3.48828C3.48828 32.9488 6.58843 38.6257 10.6537 43.2031C14.6472 47.7 19.7379 51.2973 23.7207 54.4371L26.3131 51.1485ZM7.67578 25.5076C7.67578 19.5031 11.0687 14.4677 15.7 12.3507C20.1994 10.2941 26.245 10.8387 31.9901 16.8077L35.0073 13.9039C28.1903 6.82137 20.2776 5.65409 13.9592 8.54226C7.77268 11.3701 3.48828 17.9364 3.48828 25.5076H7.67578ZM23.7207 54.4371C25.1506 55.5644 26.6857 56.7665 28.2414 57.6754C29.7967 58.5841 31.5713 59.3228 33.4987 59.3228V55.1353C32.6344 55.1353 31.6174 54.7983 30.3542 54.0599C29.0915 53.3221 27.7816 52.3062 26.3131 51.1485L23.7207 54.4371ZM43.2768 54.4371C47.2594 51.2973 52.3503 47.7 56.3437 43.2031C60.409 38.6257 63.5091 32.9488 63.5091 25.5076H59.3216C59.3216 31.642 56.8113 36.3703 53.2126 40.4226C49.5421 44.5557 44.9155 47.813 40.6844 51.1485L43.2768 54.4371ZM63.5091 25.5076C63.5091 17.9364 59.2247 11.3701 53.0381 8.54226C46.7198 5.65409 38.8071 6.82137 31.9901 13.9039L35.0073 16.8077C40.7523 10.8387 46.7979 10.2941 51.2972 12.3507C55.9286 14.4677 59.3216 19.5031 59.3216 25.5076H63.5091ZM40.6844 51.1485C39.2158 52.3062 37.9059 53.3221 36.6432 54.0599C35.38 54.7983 34.363 55.1353 33.4987 55.1353V59.3228C35.4261 59.3228 37.2007 58.5841 38.756 57.6754C40.3118 56.7665 41.8466 55.5644 43.2768 54.4371L40.6844 51.1485Z" fill="#D8E6EC"/>
</svg>
