<svg width="124" height="109" viewBox="0 0 124 109" fill="none" xmlns="http://www.w3.org/2000/svg">
<path d="M62 17.276L58.8833 20.3051C58.9029 20.3253 58.9225 20.3454 58.9421 20.3652L62 17.276ZM70.477 32.009C72.1663 33.7145 74.9052 33.714 76.5939 32.0078C78.2832 30.3018 78.2826 27.5361 76.5928 25.8306L70.477 32.009ZM47.1549 91.9468C38.4134 84.9883 28.8549 78.1929 21.272 69.5705C13.8374 61.1164 8.65116 51.2524 8.65116 38.4547H0C0 53.9786 6.40474 65.8216 14.8034 75.3712C23.0538 84.7525 33.571 92.2572 41.7991 98.8075L47.1549 91.9468ZM8.65116 38.4547C8.65116 25.9281 15.6607 15.4234 25.2289 11.0069C34.5243 6.71628 47.0142 7.85254 58.8833 20.3051L65.1167 14.247C51.0332 -0.528518 34.6859 -2.9637 21.6323 3.06161C8.85135 8.96107 0 22.6597 0 38.4547H8.65116ZM41.7991 98.8075C44.7533 101.159 47.9248 103.667 51.1388 105.563C54.3518 107.459 58.0182 109 62 109V100.264C60.2144 100.264 58.1133 99.5611 55.5036 98.0206C52.8949 96.4814 50.1887 94.362 47.1549 91.9468L41.7991 98.8075ZM82.201 98.8075C90.4289 92.2572 100.946 84.7525 109.197 75.3712C117.595 65.8216 124 53.9786 124 38.4547H115.349C115.349 51.2524 110.163 61.1164 102.728 69.5705C95.1449 78.1929 85.5865 84.9883 76.8454 91.9468L82.201 98.8075ZM124 38.4547C124 22.6597 115.149 8.96107 102.367 3.06161C89.314 -2.9637 72.9668 -0.528518 58.8833 14.247L65.1167 20.3051C76.9855 7.85254 89.4755 6.71628 98.7709 11.0069C108.339 15.4234 115.349 25.9281 115.349 38.4547H124ZM76.8454 91.9468C73.8111 94.362 71.1051 96.4814 68.4964 98.0206C65.8867 99.5611 63.7856 100.264 62 100.264V109C65.9818 109 69.6482 107.459 72.8612 105.563C76.0754 103.667 79.2464 101.159 82.201 98.8075L76.8454 91.9468ZM58.9421 20.3652L70.477 32.009L76.5928 25.8306L65.0579 14.1869L58.9421 20.3652Z" fill="#D8E6EC"/>
</svg>
