<svg width="34" height="34" viewBox="0 0 34 34" fill="none" xmlns="http://www.w3.org/2000/svg">
<path fill-rule="evenodd" clip-rule="evenodd" d="M6.22658 13.0117C6.78534 13.0117 7.23831 13.4647 7.23831 14.0235V15.3724C7.23831 20.7739 11.617 25.1525 17.0184 25.1525C22.4198 25.1525 26.7985 20.7739 26.7985 15.3724V14.0235C26.7985 13.4647 27.2515 13.0117 27.8102 13.0117C28.369 13.0117 28.822 13.4647 28.822 14.0235V15.3724C28.822 21.5505 24.0754 26.6201 18.0301 27.1332V30.2112C18.0301 30.7699 17.5771 31.2229 17.0184 31.2229C16.4597 31.2229 16.0067 30.7699 16.0067 30.2112V27.1332C9.96136 26.6201 5.21484 21.5505 5.21484 15.3724V14.0235C5.21484 13.4647 5.66782 13.0117 6.22658 13.0117Z" fill="white"/>
<path opacity="0.5" d="M17.0183 3.56934C12.7345 3.56934 9.26172 7.04209 9.26172 11.326V15.3729C9.26172 19.6567 12.7345 23.1295 17.0183 23.1295C20.9592 23.1295 24.2138 20.1905 24.7095 16.3846H18.3673C17.8086 16.3846 17.3556 15.9316 17.3556 15.3729C17.3556 14.8141 17.8086 14.3612 18.3673 14.3612H24.775V12.3377H18.3673C17.8086 12.3377 17.3556 11.8847 17.3556 11.326C17.3556 10.7672 17.8086 10.3142 18.3673 10.3142H24.7095C24.2138 6.50839 20.9592 3.56934 17.0183 3.56934Z" fill="white"/>
<path d="M17.3555 15.3731C17.3555 15.9318 17.8085 16.3848 18.3672 16.3848H24.7094L24.7748 14.3613H18.3672C17.8085 14.3613 17.3555 14.8143 17.3555 15.3731Z" fill="white"/>
<path d="M17.3555 11.3252C17.3555 11.884 17.8085 12.3369 18.3672 12.3369H24.7748L24.7094 10.3135H18.3672C17.8085 10.3135 17.3555 10.7664 17.3555 11.3252Z" fill="white"/>
</svg>
