<svg width="109" height="109" viewBox="0 0 109 109" fill="none" xmlns="http://www.w3.org/2000/svg">
<path d="M91.9688 20.4375V88.5625C91.9688 90.3693 91.251 92.1021 89.9734 93.3797C88.6958 94.6573 86.963 95.375 85.1562 95.375H68.125C66.3182 95.375 64.5854 94.6573 63.3078 93.3797C62.0302 92.1021 61.3125 90.3693 61.3125 88.5625V20.4375C61.3125 18.6307 62.0302 16.8979 63.3078 15.6203C64.5854 14.3427 66.3182 13.625 68.125 13.625H85.1562C86.963 13.625 88.6958 14.3427 89.9734 15.6203C91.251 16.8979 91.9688 18.6307 91.9688 20.4375ZM40.875 13.625H23.8438C22.037 13.625 20.3042 14.3427 19.0266 15.6203C17.749 16.8979 17.0313 18.6307 17.0312 20.4375V88.5625C17.0313 90.3693 17.749 92.1021 19.0266 93.3797C20.3042 94.6573 22.037 95.375 23.8438 95.375H40.875C42.6818 95.375 44.4146 94.6573 45.6922 93.3797C46.9698 92.1021 47.6875 90.3693 47.6875 88.5625V20.4375C47.6875 18.6307 46.9698 16.8979 45.6922 15.6203C44.4146 14.3427 42.6818 13.625 40.875 13.625Z" fill="#FC7203"/>
</svg>
