<svg width="35" height="35" viewBox="0 0 35 35" fill="none" xmlns="http://www.w3.org/2000/svg">
<path d="M23.5156 16.4062C23.5156 17.596 23.1628 18.7591 22.5018 19.7484C21.8408 20.7376 20.9013 21.5087 19.8021 21.964C18.7029 22.4193 17.4933 22.5384 16.3264 22.3063C15.1595 22.0742 14.0876 21.5012 13.2463 20.6599C12.405 19.8186 11.8321 18.7468 11.6 17.5798C11.3679 16.4129 11.487 15.2034 11.9423 14.1042C12.3976 13.005 13.1686 12.0654 14.1579 11.4044C15.1472 10.7434 16.3102 10.3906 17.5 10.3906C19.0949 10.3924 20.6239 11.0268 21.7517 12.1546C22.8795 13.2823 23.5138 14.8114 23.5156 16.4062ZM31.7188 17.5C31.7188 20.3122 30.8848 23.0612 29.3225 25.3995C27.7601 27.7378 25.5394 29.5602 22.9413 30.6364C20.3431 31.7126 17.4842 31.9942 14.7261 31.4455C11.9679 30.8969 9.43436 29.5427 7.44583 27.5542C5.4573 25.5656 4.1031 23.0321 3.55447 20.2739C3.00583 17.5158 3.28741 14.6569 4.36359 12.0587C5.43978 9.46058 7.26223 7.23992 9.60049 5.67754C11.9388 4.11517 14.6878 3.28125 17.5 3.28125C21.2698 3.28523 24.8841 4.78455 27.5498 7.45022C30.2155 10.1159 31.7148 13.7302 31.7188 17.5ZM29.5313 17.5C29.5295 15.8806 29.2012 14.2782 28.5659 12.7886C27.9307 11.299 27.0016 9.95284 25.8341 8.83057C24.6667 7.70831 23.2849 6.83301 21.7714 6.25702C20.2579 5.68103 18.6438 5.41618 17.0256 5.47832C10.5861 5.72715 5.45098 11.0906 5.46876 17.5342C5.47493 20.4675 6.55679 23.2967 8.50938 25.4857C9.30457 24.3324 10.3147 23.3432 11.4844 22.5723C11.5841 22.5064 11.7027 22.475 11.8219 22.4829C11.9412 22.4908 12.0546 22.5376 12.1447 22.616C13.6311 23.9016 15.5307 24.6092 17.4959 24.6092C19.4611 24.6092 21.3607 23.9016 22.8471 22.616C22.9372 22.5376 23.0506 22.4908 23.1699 22.4829C23.2891 22.475 23.4077 22.5064 23.5074 22.5723C24.6786 23.3428 25.6901 24.332 26.4865 25.4857C28.4488 23.2887 29.5327 20.4457 29.5313 17.5Z" fill="#D8E6EC"/>
</svg>
