<svg width="16" height="16" viewBox="0 0 16 16" fill="none" xmlns="http://www.w3.org/2000/svg">
<path d="M14.3538 6.85403L11.3538 9.85403C11.2599 9.94785 11.1327 10.0006 11 10.0006C10.8673 10.0006 10.7401 9.94785 10.6462 9.85403C10.5524 9.76021 10.4997 9.63296 10.4997 9.50028C10.4997 9.3676 10.5524 9.24035 10.6462 9.14653L12.7931 7.00028H10.3125C9.09291 6.99994 7.9078 7.40497 6.94353 8.15168C5.97926 8.89839 5.29052 9.94442 4.98562 11.1253C4.95247 11.2537 4.86965 11.3638 4.75537 11.4312C4.64109 11.4986 4.50471 11.5178 4.37625 11.4847C4.24779 11.4515 4.13775 11.3687 4.07036 11.2544C4.00296 11.1401 3.98372 11.0037 4.01687 10.8753C4.37663 9.47936 5.19047 8.24275 6.33024 7.36017C7.47001 6.47759 8.87097 5.99918 10.3125 6.00028H12.7944L10.6462 3.85403C10.5998 3.80757 10.5629 3.75242 10.5378 3.69173C10.5127 3.63103 10.4997 3.56598 10.4997 3.50028C10.4997 3.43458 10.5127 3.36953 10.5378 3.30883C10.5629 3.24813 10.5998 3.19298 10.6462 3.14653C10.7401 3.05271 10.8673 3 11 3C11.0657 3 11.1308 3.01294 11.1914 3.03808C11.2521 3.06322 11.3073 3.10007 11.3538 3.14653L14.3538 6.14653C14.4002 6.19296 14.4371 6.24811 14.4623 6.30881C14.4874 6.36951 14.5004 6.43457 14.5004 6.50028C14.5004 6.56599 14.4874 6.63105 14.4623 6.69175C14.4371 6.75245 14.4002 6.80759 14.3538 6.85403ZM12 13.0003H2.5V5.50028C2.5 5.36767 2.44732 5.24049 2.35355 5.14672C2.25979 5.05296 2.13261 5.00028 2 5.00028C1.86739 5.00028 1.74021 5.05296 1.64645 5.14672C1.55268 5.24049 1.5 5.36767 1.5 5.50028V13.5003C1.5 13.6329 1.55268 13.7601 1.64645 13.8538C1.74021 13.9476 1.86739 14.0003 2 14.0003H12C12.1326 14.0003 12.2598 13.9476 12.3536 13.8538C12.4473 13.7601 12.5 13.6329 12.5 13.5003C12.5 13.3677 12.4473 13.2405 12.3536 13.1467C12.2598 13.053 12.1326 13.0003 12 13.0003Z" fill="white"/>
</svg>
