<svg width="34" height="33" viewBox="0 0 34 33" fill="none" xmlns="http://www.w3.org/2000/svg">
<path d="M16.7222 8.90969C17.2689 8.90969 17.7122 8.46644 17.7122 7.91969C17.7122 7.37293 17.2689 6.92969 16.7222 6.92969V8.90969ZM26.9522 17.1597C26.9522 16.6129 26.5089 16.1697 25.9622 16.1697C25.4154 16.1697 24.9722 16.6129 24.9722 17.1597H26.9522ZM25.9622 8.90969C26.5089 8.90969 26.9522 8.46644 26.9522 7.91969C26.9522 7.37293 26.5089 6.92969 25.9622 6.92969V8.90969ZM20.566 6.92969C20.0193 6.92969 19.576 7.37293 19.576 7.91969C19.576 8.46644 20.0193 8.90969 20.566 8.90969V6.92969ZM26.9522 7.91969C26.9522 7.37293 26.5089 6.92969 25.9622 6.92969C25.4154 6.92969 24.9722 7.37293 24.9722 7.91969H26.9522ZM24.9722 13.3858C24.9722 13.9326 25.4154 14.3758 25.9622 14.3758C26.5089 14.3758 26.9522 13.9326 26.9522 13.3858H24.9722ZM26.6622 8.61972C27.0488 8.23311 27.0488 7.60627 26.6622 7.21965C26.2756 6.83304 25.6488 6.83304 25.2622 7.21965L26.6622 8.61972ZM16.0222 16.4597C15.6356 16.8463 15.6356 17.4731 16.0222 17.8597C16.4088 18.2463 17.0356 18.2463 17.4222 17.8597L16.0222 16.4597ZM16.7222 6.92969H12.7622V8.90969H16.7222V6.92969ZM12.7622 6.92969C9.29937 6.92969 6.49219 9.73687 6.49219 13.1997H8.47219C8.47219 10.8304 10.3929 8.90969 12.7622 8.90969V6.92969ZM6.49219 13.1997V21.1197H8.47219V13.1997H6.49219ZM6.49219 21.1197C6.49219 24.5826 9.29937 27.3897 12.7622 27.3897V25.4097C10.3929 25.4097 8.47219 23.489 8.47219 21.1197H6.49219ZM12.7622 27.3897H20.6822V25.4097H12.7622V27.3897ZM20.6822 27.3897C24.1451 27.3897 26.9522 24.5826 26.9522 21.1197H24.9722C24.9722 23.489 23.0515 25.4097 20.6822 25.4097V27.3897ZM26.9522 21.1197V17.1597H24.9722V21.1197H26.9522ZM25.9622 6.92969H20.566V8.90969H25.9622V6.92969ZM24.9722 7.91969V13.3858H26.9522V7.91969H24.9722ZM25.2622 7.21965L16.0222 16.4597L17.4222 17.8597L26.6622 8.61972L25.2622 7.21965Z" fill="#D8E6EC"/>
</svg>
