<svg width="81" height="82" viewBox="0 0 81 82" fill="none" xmlns="http://www.w3.org/2000/svg">
<path d="M75.4184 31.9509C74.0636 30.535 72.662 29.0759 72.1338 27.793C71.645 26.6178 71.6162 24.67 71.5875 22.7833C71.5336 19.2758 71.4761 15.3011 68.7125 12.5375C65.9489 9.77391 61.9742 9.71641 58.4667 9.6625C56.58 9.63375 54.6322 9.605 53.457 9.11625C52.1777 8.58797 50.715 7.18641 49.2991 5.83156C46.8194 3.44891 44.0019 0.75 40.25 0.75C36.4981 0.75 33.6842 3.44891 31.2009 5.83156C29.785 7.18641 28.3259 8.58797 27.043 9.11625C25.875 9.605 23.92 9.63375 22.0333 9.6625C18.5258 9.71641 14.5511 9.77391 11.7875 12.5375C9.02391 15.3011 8.98438 19.2758 8.9125 22.7833C8.88375 24.67 8.855 26.6178 8.36625 27.793C7.83797 29.0723 6.43641 30.535 5.08156 31.9509C2.69891 34.4306 0 37.2481 0 41C0 44.7519 2.69891 47.5658 5.08156 50.0491C6.43641 51.465 7.83797 52.9241 8.36625 54.207C8.855 55.3822 8.88375 57.33 8.9125 59.2167C8.96641 62.7242 9.02391 66.6989 11.7875 69.4625C14.5511 72.2261 18.5258 72.2836 22.0333 72.3375C23.92 72.3662 25.8678 72.395 27.043 72.8838C28.3223 73.412 29.785 74.8136 31.2009 76.1684C33.6806 78.5511 36.4981 81.25 40.25 81.25C44.0019 81.25 46.8158 78.5511 49.2991 76.1684C50.715 74.8136 52.1741 73.412 53.457 72.8838C54.6322 72.395 56.58 72.3662 58.4667 72.3375C61.9742 72.2836 65.9489 72.2261 68.7125 69.4625C71.4761 66.6989 71.5336 62.7242 71.5875 59.2167C71.6162 57.33 71.645 55.3822 72.1338 54.207C72.662 52.9277 74.0636 51.465 75.4184 50.0491C77.8011 47.5694 80.5 44.7519 80.5 41C80.5 37.2481 77.8011 34.4342 75.4184 31.9509ZM56.6591 34.4091L36.5341 54.5341C36.2671 54.8014 35.95 55.0134 35.601 55.1581C35.2519 55.3028 34.8778 55.3773 34.5 55.3773C34.1222 55.3773 33.7481 55.3028 33.399 55.1581C33.05 55.0134 32.7329 54.8014 32.4659 54.5341L23.8409 45.9091C23.3015 45.3696 22.9984 44.6379 22.9984 43.875C22.9984 43.1121 23.3015 42.3804 23.8409 41.8409C24.3804 41.3015 25.1121 40.9984 25.875 40.9984C26.6379 40.9984 27.3696 41.3015 27.9091 41.8409L34.5 48.4355L52.5909 30.3409C52.8581 30.0738 53.1752 29.8619 53.5242 29.7174C53.8732 29.5728 54.2472 29.4984 54.625 29.4984C55.0028 29.4984 55.3768 29.5728 55.7258 29.7174C56.0748 29.8619 56.3919 30.0738 56.6591 30.3409C56.9262 30.6081 57.1381 30.9252 57.2826 31.2742C57.4272 31.6232 57.5016 31.9972 57.5016 32.375C57.5016 32.7528 57.4272 33.1268 57.2826 33.4758C57.1381 33.8248 56.9262 34.1419 56.6591 34.4091Z" fill="#50B848"/>
</svg>
