<svg width="135" height="35" viewBox="0 0 135 35" fill="none" xmlns="http://www.w3.org/2000/svg">
<rect width="135" height="35" rx="10" transform="matrix(-1 0 0 1 135 0)" fill="#1A1919"/>
<path d="M52.125 12.25L46.875 17.5L52.125 22.75" stroke="#131313" stroke-width="3" stroke-linecap="round" stroke-linejoin="round"/>
<rect width="55" height="28" rx="10" transform="matrix(-1 0 0 1 131 4)" fill="#D9D9D9"/>
<path d="M59.125 12.25L53.875 17.5L59.125 22.75" stroke="#989898" stroke-width="3" stroke-linecap="round" stroke-linejoin="round"/>
<path d="M67.125 12.25L61.875 17.5L67.125 22.75" stroke="#B5C1C5" stroke-width="3" stroke-linecap="round" stroke-linejoin="round"/>
<path d="M10.3757 17.5C10.3757 17.79 10.3223 18.0867 10.2157 18.39C10.109 18.6933 9.949 18.975 9.73566 19.235C9.52233 19.4917 9.254 19.7 8.93066 19.86C8.60733 20.0167 8.229 20.095 7.79566 20.095C7.19566 20.095 6.684 19.935 6.26066 19.615C5.83733 19.295 5.514 18.85 5.29066 18.28C5.07066 17.71 4.96066 17.055 4.96066 16.315C4.96066 15.5717 5.07066 14.9167 5.29066 14.35C5.514 13.7833 5.83733 13.3417 6.26066 13.025C6.684 12.705 7.19566 12.545 7.79566 12.545C8.299 12.545 8.72733 12.6517 9.08066 12.865C9.43733 13.075 9.719 13.3433 9.92566 13.67C10.1357 13.9967 10.2707 14.3317 10.3307 14.675C10.3607 14.8317 10.3757 14.9817 10.3757 15.125H9.75566C9.75566 15.035 9.74733 14.93 9.73066 14.81C9.68733 14.5167 9.584 14.2417 9.42066 13.985C9.26066 13.725 9.044 13.5133 8.77066 13.35C8.50066 13.1867 8.17566 13.105 7.79566 13.105C7.35233 13.105 6.96566 13.2317 6.63566 13.485C6.30566 13.735 6.049 14.0983 5.86566 14.575C5.68233 15.0517 5.59066 15.6317 5.59066 16.315C5.59066 16.995 5.68233 17.5767 5.86566 18.06C6.049 18.54 6.30566 18.9067 6.63566 19.16C6.96566 19.41 7.35233 19.535 7.79566 19.535C8.11233 19.535 8.39233 19.475 8.63566 19.355C8.879 19.235 9.084 19.0767 9.25066 18.88C9.41733 18.68 9.54233 18.46 9.62566 18.22C9.71233 17.98 9.75566 17.74 9.75566 17.5H10.3757ZM11.7553 20V14.69H12.3753V16.255L12.1553 16.185C12.1753 16.0183 12.2236 15.845 12.3003 15.665C12.3803 15.4817 12.4903 15.31 12.6303 15.15C12.7703 14.99 12.9453 14.8617 13.1553 14.765C13.3686 14.665 13.6219 14.615 13.9153 14.615C14.1286 14.615 14.3003 14.6333 14.4303 14.67C14.5603 14.7067 14.6419 14.735 14.6753 14.755L14.5053 15.355C14.4719 15.3317 14.4036 15.3017 14.3003 15.265C14.1969 15.2283 14.0486 15.21 13.8553 15.21C13.5753 15.21 13.3403 15.265 13.1503 15.375C12.9603 15.4817 12.8086 15.6217 12.6953 15.795C12.5819 15.9683 12.5003 16.1533 12.4503 16.35C12.4003 16.5433 12.3753 16.73 12.3753 16.91V20H11.7553ZM15.7034 17.605V17.05H20.0034L19.8834 17.22C19.8834 17.2 19.8834 17.1833 19.8834 17.17C19.8834 17.1533 19.8834 17.1367 19.8834 17.12C19.8834 16.7767 19.8101 16.4567 19.6634 16.16C19.5167 15.8633 19.3034 15.625 19.0234 15.445C18.7467 15.265 18.4084 15.175 18.0084 15.175C17.6017 15.175 17.2434 15.2683 16.9334 15.455C16.6234 15.6383 16.3817 15.8933 16.2084 16.22C16.0351 16.5433 15.9484 16.92 15.9484 17.35C15.9484 17.7833 16.0334 18.165 16.2034 18.495C16.3767 18.8217 16.6184 19.0767 16.9284 19.26C17.2384 19.44 17.6001 19.53 18.0134 19.53C18.3167 19.53 18.5801 19.4933 18.8034 19.42C19.0301 19.3433 19.2167 19.2433 19.3634 19.12C19.5134 18.9967 19.6267 18.8667 19.7034 18.73C19.7834 18.59 19.8301 18.4583 19.8434 18.335H20.4584C20.4451 18.5317 20.3817 18.7333 20.2684 18.94C20.1584 19.1433 20.0001 19.3333 19.7934 19.51C19.5901 19.6867 19.3367 19.83 19.0334 19.94C18.7334 20.0467 18.3867 20.1 17.9934 20.1C17.4801 20.1 17.0234 19.9833 16.6234 19.75C16.2267 19.5167 15.9134 19.195 15.6834 18.785C15.4567 18.3717 15.3434 17.8967 15.3434 17.36C15.3434 16.82 15.4584 16.345 15.6884 15.935C15.9184 15.5217 16.2334 15.1983 16.6334 14.965C17.0334 14.7317 17.4884 14.615 17.9984 14.615C18.5184 14.615 18.9684 14.7333 19.3484 14.97C19.7284 15.2067 20.0217 15.5283 20.2284 15.935C20.4351 16.3383 20.5384 16.7917 20.5384 17.295C20.5384 17.3383 20.5367 17.3933 20.5334 17.46C20.5334 17.5267 20.5317 17.575 20.5284 17.605H15.7034ZM23.8244 20.095C23.4177 20.095 23.0627 20.0333 22.7594 19.91C22.4561 19.7867 22.2211 19.6083 22.0544 19.375C21.8911 19.1383 21.8094 18.8533 21.8094 18.52C21.8094 18.1833 21.8961 17.9033 22.0694 17.68C22.2427 17.4533 22.4894 17.2767 22.8094 17.15C23.1327 17.0233 23.5144 16.9383 23.9544 16.895C24.6311 16.825 25.1161 16.755 25.4094 16.685C25.7061 16.6117 25.8544 16.495 25.8544 16.335C25.8544 16.325 25.8544 16.315 25.8544 16.305C25.8544 16.2917 25.8544 16.2783 25.8544 16.265C25.8544 15.9217 25.7144 15.655 25.4344 15.465C25.1544 15.275 24.7561 15.18 24.2394 15.18C23.6994 15.18 23.2777 15.2867 22.9744 15.5C22.6744 15.7133 22.5244 16.03 22.5244 16.45H21.9144C21.9144 16.0667 22.0111 15.7383 22.2044 15.465C22.3977 15.1883 22.6694 14.9783 23.0194 14.835C23.3694 14.6883 23.7777 14.615 24.2444 14.615C24.6644 14.615 25.0427 14.68 25.3794 14.81C25.7161 14.94 25.9827 15.13 26.1794 15.38C26.3794 15.6267 26.4794 15.9317 26.4794 16.295C26.4794 16.365 26.4794 16.435 26.4794 16.505C26.4794 16.5717 26.4794 16.64 26.4794 16.71V19.06C26.4794 19.1733 26.4844 19.2817 26.4944 19.385C26.5044 19.4883 26.5194 19.5783 26.5394 19.655C26.5694 19.7517 26.6011 19.8283 26.6344 19.885C26.6677 19.9417 26.6944 19.98 26.7144 20H26.0894C26.0761 19.9867 26.0544 19.9517 26.0244 19.895C25.9944 19.835 25.9644 19.765 25.9344 19.685C25.9077 19.6017 25.8894 19.5083 25.8794 19.405C25.8694 19.3017 25.8644 19.1767 25.8644 19.03L25.9644 19.105C25.8577 19.3017 25.7027 19.475 25.4994 19.625C25.2961 19.7717 25.0527 19.8867 24.7694 19.97C24.4861 20.0533 24.1711 20.095 23.8244 20.095ZM23.9194 19.54C24.2794 19.54 24.6044 19.4817 24.8944 19.365C25.1877 19.245 25.4211 19.075 25.5944 18.855C25.7677 18.6317 25.8544 18.3617 25.8544 18.045V16.805L25.9894 17.035C25.7961 17.1317 25.5327 17.21 25.1994 17.27C24.8661 17.3267 24.5044 17.3733 24.1144 17.41C23.5644 17.4633 23.1461 17.5683 22.8594 17.725C22.5761 17.8817 22.4344 18.1367 22.4344 18.49C22.4344 18.83 22.5594 19.09 22.8094 19.27C23.0594 19.45 23.4294 19.54 23.9194 19.54ZM29.7871 20.08C29.6371 20.08 29.4905 20.0617 29.3471 20.025C29.2071 19.9883 29.0805 19.9233 28.9671 19.83C28.8571 19.7333 28.7705 19.6017 28.7071 19.435C28.6438 19.2683 28.6121 19.0567 28.6121 18.8C28.6121 18.73 28.6121 18.6583 28.6121 18.585C28.6121 18.5083 28.6121 18.4283 28.6121 18.345V15.235H27.3321V14.69H28.2521C28.3388 14.69 28.4071 14.6867 28.4571 14.68C28.5071 14.6733 28.5421 14.6567 28.5621 14.63C28.5855 14.6033 28.5988 14.5617 28.6021 14.505C28.6088 14.4483 28.6121 14.37 28.6121 14.27V12.975H29.2321V14.69H30.9321V15.235H29.2321V18.14C29.2321 18.22 29.2321 18.2967 29.2321 18.37C29.2321 18.4433 29.2321 18.5117 29.2321 18.575C29.2321 18.875 29.2755 19.11 29.3621 19.28C29.4521 19.45 29.6205 19.535 29.8671 19.535C29.9605 19.535 30.0521 19.5267 30.1421 19.51C30.2321 19.4933 30.3005 19.475 30.3471 19.455V19.995C30.2905 20.0183 30.2121 20.0383 30.1121 20.055C30.0121 20.0717 29.9038 20.08 29.7871 20.08ZM34.3511 20.09C33.8311 20.09 33.3711 19.9717 32.9711 19.735C32.5711 19.495 32.2577 19.1667 32.0311 18.75C31.8044 18.3333 31.6911 17.8633 31.6911 17.34C31.6911 16.8133 31.8044 16.345 32.0311 15.935C32.2577 15.525 32.5711 15.2033 32.9711 14.97C33.3711 14.7367 33.8311 14.62 34.3511 14.62C34.8711 14.62 35.3311 14.7367 35.7311 14.97C36.1311 15.2033 36.4444 15.525 36.6711 15.935C36.8977 16.345 37.0111 16.8133 37.0111 17.34C37.0111 17.8633 36.8977 18.3333 36.6711 18.75C36.4444 19.1667 36.1311 19.495 35.7311 19.735C35.3311 19.9717 34.8711 20.09 34.3511 20.09ZM34.3511 19.525C34.7511 19.525 35.1027 19.4317 35.4061 19.245C35.7127 19.0583 35.9527 18.8 36.1261 18.47C36.2994 18.14 36.3861 17.7633 36.3861 17.34C36.3861 16.9133 36.2994 16.5383 36.1261 16.215C35.9527 15.8917 35.7127 15.64 35.4061 15.46C35.1027 15.2767 34.7511 15.185 34.3511 15.185C33.9544 15.185 33.6027 15.2767 33.2961 15.46C32.9894 15.64 32.7494 15.8917 32.5761 16.215C32.4027 16.5383 32.3161 16.9133 32.3161 17.34C32.3161 17.7633 32.4027 18.14 32.5761 18.47C32.7494 18.8 32.9894 19.0583 33.2961 19.245C33.6027 19.4317 33.9544 19.525 34.3511 19.525ZM38.474 20V14.69H39.094V16.255L38.874 16.185C38.894 16.0183 38.9424 15.845 39.019 15.665C39.099 15.4817 39.209 15.31 39.349 15.15C39.489 14.99 39.664 14.8617 39.874 14.765C40.0874 14.665 40.3407 14.615 40.634 14.615C40.8474 14.615 41.019 14.6333 41.149 14.67C41.279 14.7067 41.3607 14.735 41.394 14.755L41.224 15.355C41.1907 15.3317 41.1224 15.3017 41.019 15.265C40.9157 15.2283 40.7674 15.21 40.574 15.21C40.294 15.21 40.059 15.265 39.869 15.375C39.679 15.4817 39.5274 15.6217 39.414 15.795C39.3007 15.9683 39.219 16.1533 39.169 16.35C39.119 16.5433 39.094 16.73 39.094 16.91V20H38.474Z" fill="#D8E6EC"/>
<path d="M81.8778 21.095C81.3745 21.095 80.9478 21.015 80.5978 20.855C80.2511 20.695 79.9878 20.455 79.8078 20.135C79.6278 19.8117 79.5378 19.41 79.5378 18.93C79.5378 18.8567 79.5378 18.7967 79.5378 18.75C79.5378 18.7033 79.5378 18.6433 79.5378 18.57H80.1578C80.1578 18.64 80.1578 18.6983 80.1578 18.745C80.1578 18.7883 80.1578 18.8467 80.1578 18.92C80.1578 19.4833 80.3028 19.8933 80.5928 20.15C80.8861 20.4067 81.3095 20.535 81.8628 20.535C82.4361 20.535 82.8678 20.4267 83.1578 20.21C83.4478 19.9933 83.5928 19.6617 83.5928 19.215C83.5928 18.905 83.5161 18.6483 83.3628 18.445C83.2095 18.2383 82.9945 18.065 82.7178 17.925C82.4411 17.785 82.1178 17.6567 81.7478 17.54C81.3245 17.4033 80.9511 17.2417 80.6278 17.055C80.3045 16.865 80.0511 16.6317 79.8678 16.355C79.6845 16.0783 79.5928 15.74 79.5928 15.34C79.5928 14.95 79.6845 14.6217 79.8678 14.355C80.0511 14.0883 80.3095 13.8867 80.6428 13.75C80.9795 13.6133 81.3728 13.545 81.8228 13.545C82.3028 13.545 82.7161 13.62 83.0628 13.77C83.4128 13.9167 83.6811 14.1417 83.8678 14.445C84.0545 14.745 84.1478 15.1267 84.1478 15.59C84.1478 15.67 84.1478 15.7383 84.1478 15.795C84.1478 15.8483 84.1478 15.915 84.1478 15.995H83.5278C83.5278 15.9217 83.5278 15.8583 83.5278 15.805C83.5278 15.7517 83.5278 15.6883 83.5278 15.615C83.5278 15.075 83.3811 14.6883 83.0878 14.455C82.7978 14.2217 82.3795 14.105 81.8328 14.105C81.3128 14.105 80.9095 14.205 80.6228 14.405C80.3395 14.605 80.1978 14.9167 80.1978 15.34C80.1978 15.6533 80.2811 15.9133 80.4478 16.12C80.6178 16.3267 80.8478 16.5017 81.1378 16.645C81.4278 16.7883 81.7578 16.9217 82.1278 17.045C82.5645 17.1883 82.9378 17.35 83.2478 17.53C83.5578 17.7067 83.7945 17.9283 83.9578 18.195C84.1211 18.4583 84.2028 18.79 84.2028 19.19C84.2028 19.59 84.1111 19.9333 83.9278 20.22C83.7445 20.5033 83.4795 20.72 83.1328 20.87C82.7861 21.02 82.3678 21.095 81.8778 21.095ZM87.4805 21.09C87.1005 21.09 86.7855 21.0233 86.5355 20.89C86.2888 20.7567 86.0955 20.585 85.9555 20.375C85.8155 20.1617 85.7171 19.9333 85.6605 19.69C85.6071 19.4467 85.5805 19.2183 85.5805 19.005C85.5805 18.8783 85.5805 18.7467 85.5805 18.61C85.5805 18.4733 85.5805 18.3367 85.5805 18.2V15.69H86.2055V18.14C86.2055 18.2667 86.2055 18.3917 86.2055 18.515C86.2055 18.6383 86.2055 18.7567 86.2055 18.87C86.2055 19.1533 86.2471 19.4217 86.3305 19.675C86.4138 19.925 86.5571 20.1283 86.7605 20.285C86.9638 20.4417 87.2405 20.52 87.5905 20.52C87.9205 20.52 88.2105 20.43 88.4605 20.25C88.7105 20.07 88.9055 19.8417 89.0455 19.565C89.1888 19.285 89.2605 18.9983 89.2605 18.705L89.6405 18.86C89.6405 19.1267 89.5905 19.3917 89.4905 19.655C89.3938 19.915 89.2521 20.155 89.0655 20.375C88.8821 20.5917 88.6555 20.765 88.3855 20.895C88.1188 21.025 87.8171 21.09 87.4805 21.09ZM89.2605 21V15.69H89.8805V21H89.2605ZM91.5277 23.185V15.69H92.1477V23.185H91.5277ZM93.9777 21.095C93.5711 21.095 93.1944 20.9967 92.8477 20.8C92.5011 20.6033 92.2211 20.3367 92.0077 20C91.7977 19.6633 91.6927 19.285 91.6927 18.865C91.6927 18.855 91.6927 18.8467 91.6927 18.84C91.6927 18.8333 91.6927 18.8267 91.6927 18.82L92.1477 18.81C92.1477 18.8167 92.1477 18.8233 92.1477 18.83C92.1477 18.8367 92.1477 18.8433 92.1477 18.85C92.1477 19.15 92.2294 19.4267 92.3927 19.68C92.5561 19.9333 92.7694 20.135 93.0327 20.285C93.2994 20.435 93.5877 20.51 93.8977 20.51C94.4111 20.51 94.8327 20.3283 95.1627 19.965C95.4961 19.5983 95.6627 19.0583 95.6627 18.345C95.6627 17.6283 95.4961 17.0883 95.1627 16.725C94.8327 16.3617 94.4111 16.18 93.8977 16.18C93.5877 16.18 93.2994 16.255 93.0327 16.405C92.7694 16.555 92.5561 16.755 92.3927 17.005C92.2294 17.255 92.1477 17.5317 92.1477 17.835L91.6927 17.82C91.6927 17.4 91.7977 17.0233 92.0077 16.69C92.2211 16.3567 92.5011 16.095 92.8477 15.905C93.1944 15.7117 93.5711 15.615 93.9777 15.615C94.4077 15.615 94.7977 15.7217 95.1477 15.935C95.4977 16.145 95.7761 16.4533 95.9827 16.86C96.1927 17.2667 96.2977 17.7617 96.2977 18.345C96.2977 18.935 96.1944 19.435 95.9877 19.845C95.7844 20.255 95.5061 20.5667 95.1527 20.78C94.8027 20.99 94.4111 21.095 93.9777 21.095ZM97.7582 23.185V15.69H98.3782V23.185H97.7582ZM100.208 21.095C99.8015 21.095 99.4249 20.9967 99.0782 20.8C98.7315 20.6033 98.4515 20.3367 98.2382 20C98.0282 19.6633 97.9232 19.285 97.9232 18.865C97.9232 18.855 97.9232 18.8467 97.9232 18.84C97.9232 18.8333 97.9232 18.8267 97.9232 18.82L98.3782 18.81C98.3782 18.8167 98.3782 18.8233 98.3782 18.83C98.3782 18.8367 98.3782 18.8433 98.3782 18.85C98.3782 19.15 98.4599 19.4267 98.6232 19.68C98.7865 19.9333 98.9999 20.135 99.2632 20.285C99.5299 20.435 99.8182 20.51 100.128 20.51C100.642 20.51 101.063 20.3283 101.393 19.965C101.727 19.5983 101.893 19.0583 101.893 18.345C101.893 17.6283 101.727 17.0883 101.393 16.725C101.063 16.3617 100.642 16.18 100.128 16.18C99.8182 16.18 99.5299 16.255 99.2632 16.405C98.9999 16.555 98.7865 16.755 98.6232 17.005C98.4599 17.255 98.3782 17.5317 98.3782 17.835L97.9232 17.82C97.9232 17.4 98.0282 17.0233 98.2382 16.69C98.4515 16.3567 98.7315 16.095 99.0782 15.905C99.4249 15.7117 99.8015 15.615 100.208 15.615C100.638 15.615 101.028 15.7217 101.378 15.935C101.728 16.145 102.007 16.4533 102.213 16.86C102.423 17.2667 102.528 17.7617 102.528 18.345C102.528 18.935 102.425 19.435 102.218 19.845C102.015 20.255 101.737 20.5667 101.383 20.78C101.033 20.99 100.642 21.095 100.208 21.095ZM106.409 21.09C105.889 21.09 105.429 20.9717 105.029 20.735C104.629 20.495 104.315 20.1667 104.089 19.75C103.862 19.3333 103.749 18.8633 103.749 18.34C103.749 17.8133 103.862 17.345 104.089 16.935C104.315 16.525 104.629 16.2033 105.029 15.97C105.429 15.7367 105.889 15.62 106.409 15.62C106.929 15.62 107.389 15.7367 107.789 15.97C108.189 16.2033 108.502 16.525 108.729 16.935C108.955 17.345 109.069 17.8133 109.069 18.34C109.069 18.8633 108.955 19.3333 108.729 19.75C108.502 20.1667 108.189 20.495 107.789 20.735C107.389 20.9717 106.929 21.09 106.409 21.09ZM106.409 20.525C106.809 20.525 107.16 20.4317 107.464 20.245C107.77 20.0583 108.01 19.8 108.184 19.47C108.357 19.14 108.444 18.7633 108.444 18.34C108.444 17.9133 108.357 17.5383 108.184 17.215C108.01 16.8917 107.77 16.64 107.464 16.46C107.16 16.2767 106.809 16.185 106.409 16.185C106.012 16.185 105.66 16.2767 105.354 16.46C105.047 16.64 104.807 16.8917 104.634 17.215C104.46 17.5383 104.374 17.9133 104.374 18.34C104.374 18.7633 104.46 19.14 104.634 19.47C104.807 19.8 105.047 20.0583 105.354 20.245C105.66 20.4317 106.012 20.525 106.409 20.525ZM110.532 21V15.69H111.152V17.255L110.932 17.185C110.952 17.0183 111 16.845 111.077 16.665C111.157 16.4817 111.267 16.31 111.407 16.15C111.547 15.99 111.722 15.8617 111.932 15.765C112.145 15.665 112.398 15.615 112.692 15.615C112.905 15.615 113.077 15.6333 113.207 15.67C113.337 15.7067 113.418 15.735 113.452 15.755L113.282 16.355C113.248 16.3317 113.18 16.3017 113.077 16.265C112.973 16.2283 112.825 16.21 112.632 16.21C112.352 16.21 112.117 16.265 111.927 16.375C111.737 16.4817 111.585 16.6217 111.472 16.795C111.358 16.9683 111.277 17.1533 111.227 17.35C111.177 17.5433 111.152 17.73 111.152 17.91V21H110.532ZM116.337 21.08C116.187 21.08 116.04 21.0617 115.897 21.025C115.757 20.9883 115.63 20.9233 115.517 20.83C115.407 20.7333 115.32 20.6017 115.257 20.435C115.194 20.2683 115.162 20.0567 115.162 19.8C115.162 19.73 115.162 19.6583 115.162 19.585C115.162 19.5083 115.162 19.4283 115.162 19.345V16.235H113.882V15.69H114.802C114.889 15.69 114.957 15.6867 115.007 15.68C115.057 15.6733 115.092 15.6567 115.112 15.63C115.135 15.6033 115.149 15.5617 115.152 15.505C115.159 15.4483 115.162 15.37 115.162 15.27V13.975H115.782V15.69H117.482V16.235H115.782V19.14C115.782 19.22 115.782 19.2967 115.782 19.37C115.782 19.4433 115.782 19.5117 115.782 19.575C115.782 19.875 115.825 20.11 115.912 20.28C116.002 20.45 116.17 20.535 116.417 20.535C116.51 20.535 116.602 20.5267 116.692 20.51C116.782 20.4933 116.85 20.475 116.897 20.455V20.995C116.84 21.0183 116.762 21.0383 116.662 21.055C116.562 21.0717 116.454 21.08 116.337 21.08ZM118.601 18.605V18.05H122.901L122.781 18.22C122.781 18.2 122.781 18.1833 122.781 18.17C122.781 18.1533 122.781 18.1367 122.781 18.12C122.781 17.7767 122.708 17.4567 122.561 17.16C122.414 16.8633 122.201 16.625 121.921 16.445C121.644 16.265 121.306 16.175 120.906 16.175C120.499 16.175 120.141 16.2683 119.831 16.455C119.521 16.6383 119.279 16.8933 119.106 17.22C118.933 17.5433 118.846 17.92 118.846 18.35C118.846 18.7833 118.931 19.165 119.101 19.495C119.274 19.8217 119.516 20.0767 119.826 20.26C120.136 20.44 120.498 20.53 120.911 20.53C121.214 20.53 121.478 20.4933 121.701 20.42C121.928 20.3433 122.114 20.2433 122.261 20.12C122.411 19.9967 122.524 19.8667 122.601 19.73C122.681 19.59 122.728 19.4583 122.741 19.335H123.356C123.343 19.5317 123.279 19.7333 123.166 19.94C123.056 20.1433 122.898 20.3333 122.691 20.51C122.488 20.6867 122.234 20.83 121.931 20.94C121.631 21.0467 121.284 21.1 120.891 21.1C120.378 21.1 119.921 20.9833 119.521 20.75C119.124 20.5167 118.811 20.195 118.581 19.785C118.354 19.3717 118.241 18.8967 118.241 18.36C118.241 17.82 118.356 17.345 118.586 16.935C118.816 16.5217 119.131 16.1983 119.531 15.965C119.931 15.7317 120.386 15.615 120.896 15.615C121.416 15.615 121.866 15.7333 122.246 15.97C122.626 16.2067 122.919 16.5283 123.126 16.935C123.333 17.3383 123.436 17.7917 123.436 18.295C123.436 18.3383 123.434 18.3933 123.431 18.46C123.431 18.5267 123.429 18.575 123.426 18.605H118.601ZM124.897 21V15.69H125.517V17.255L125.297 17.185C125.317 17.0183 125.365 16.845 125.442 16.665C125.522 16.4817 125.632 16.31 125.772 16.15C125.912 15.99 126.087 15.8617 126.297 15.765C126.51 15.665 126.764 15.615 127.057 15.615C127.27 15.615 127.442 15.6333 127.572 15.67C127.702 15.7067 127.784 15.735 127.817 15.755L127.647 16.355C127.614 16.3317 127.545 16.3017 127.442 16.265C127.339 16.2283 127.19 16.21 126.997 16.21C126.717 16.21 126.482 16.265 126.292 16.375C126.102 16.4817 125.95 16.6217 125.837 16.795C125.724 16.9683 125.642 17.1533 125.592 17.35C125.542 17.5433 125.517 17.73 125.517 17.91V21H124.897Z" fill="#1A1919"/>
</svg>
