<svg width="135" height="36" viewBox="0 0 135 36" fill="none" xmlns="http://www.w3.org/2000/svg">
<rect y="0.5" width="135" height="35" rx="10" fill="#1E1E1E"/>
<path d="M82.875 12.75L88.125 18L82.875 23.25" stroke="#131313" stroke-width="3" stroke-linecap="round" stroke-linejoin="round"/>
<rect x="4" y="4.5" width="55" height="28" rx="10" fill="#D9D9D9"/>
<path d="M19.3757 18C19.3757 18.29 19.3223 18.5867 19.2157 18.89C19.109 19.1933 18.949 19.475 18.7357 19.735C18.5223 19.9917 18.254 20.2 17.9307 20.36C17.6073 20.5167 17.229 20.595 16.7957 20.595C16.1957 20.595 15.684 20.435 15.2607 20.115C14.8373 19.795 14.514 19.35 14.2907 18.78C14.0707 18.21 13.9607 17.555 13.9607 16.815C13.9607 16.0717 14.0707 15.4167 14.2907 14.85C14.514 14.2833 14.8373 13.8417 15.2607 13.525C15.684 13.205 16.1957 13.045 16.7957 13.045C17.299 13.045 17.7273 13.1517 18.0807 13.365C18.4373 13.575 18.719 13.8433 18.9257 14.17C19.1357 14.4967 19.2707 14.8317 19.3307 15.175C19.3607 15.3317 19.3757 15.4817 19.3757 15.625H18.7557C18.7557 15.535 18.7473 15.43 18.7307 15.31C18.6873 15.0167 18.584 14.7417 18.4207 14.485C18.2607 14.225 18.044 14.0133 17.7707 13.85C17.5007 13.6867 17.1757 13.605 16.7957 13.605C16.3523 13.605 15.9657 13.7317 15.6357 13.985C15.3057 14.235 15.049 14.5983 14.8657 15.075C14.6823 15.5517 14.5907 16.1317 14.5907 16.815C14.5907 17.495 14.6823 18.0767 14.8657 18.56C15.049 19.04 15.3057 19.4067 15.6357 19.66C15.9657 19.91 16.3523 20.035 16.7957 20.035C17.1123 20.035 17.3923 19.975 17.6357 19.855C17.879 19.735 18.084 19.5767 18.2507 19.38C18.4173 19.18 18.5423 18.96 18.6257 18.72C18.7123 18.48 18.7557 18.24 18.7557 18H19.3757ZM20.7553 20.5V15.19H21.3753V16.755L21.1553 16.685C21.1753 16.5183 21.2236 16.345 21.3003 16.165C21.3803 15.9817 21.4903 15.81 21.6303 15.65C21.7703 15.49 21.9453 15.3617 22.1553 15.265C22.3686 15.165 22.6219 15.115 22.9153 15.115C23.1286 15.115 23.3003 15.1333 23.4303 15.17C23.5603 15.2067 23.6419 15.235 23.6753 15.255L23.5053 15.855C23.4719 15.8317 23.4036 15.8017 23.3003 15.765C23.1969 15.7283 23.0486 15.71 22.8553 15.71C22.5753 15.71 22.3403 15.765 22.1503 15.875C21.9603 15.9817 21.8086 16.1217 21.6953 16.295C21.5819 16.4683 21.5003 16.6533 21.4503 16.85C21.4003 17.0433 21.3753 17.23 21.3753 17.41V20.5H20.7553ZM24.7034 18.105V17.55H29.0034L28.8834 17.72C28.8834 17.7 28.8834 17.6833 28.8834 17.67C28.8834 17.6533 28.8834 17.6367 28.8834 17.62C28.8834 17.2767 28.8101 16.9567 28.6634 16.66C28.5167 16.3633 28.3034 16.125 28.0234 15.945C27.7467 15.765 27.4084 15.675 27.0084 15.675C26.6017 15.675 26.2434 15.7683 25.9334 15.955C25.6234 16.1383 25.3817 16.3933 25.2084 16.72C25.0351 17.0433 24.9484 17.42 24.9484 17.85C24.9484 18.2833 25.0334 18.665 25.2034 18.995C25.3767 19.3217 25.6184 19.5767 25.9284 19.76C26.2384 19.94 26.6001 20.03 27.0134 20.03C27.3167 20.03 27.5801 19.9933 27.8034 19.92C28.0301 19.8433 28.2167 19.7433 28.3634 19.62C28.5134 19.4967 28.6267 19.3667 28.7034 19.23C28.7834 19.09 28.8301 18.9583 28.8434 18.835H29.4584C29.4451 19.0317 29.3817 19.2333 29.2684 19.44C29.1584 19.6433 29.0001 19.8333 28.7934 20.01C28.5901 20.1867 28.3367 20.33 28.0334 20.44C27.7334 20.5467 27.3867 20.6 26.9934 20.6C26.4801 20.6 26.0234 20.4833 25.6234 20.25C25.2267 20.0167 24.9134 19.695 24.6834 19.285C24.4567 18.8717 24.3434 18.3967 24.3434 17.86C24.3434 17.32 24.4584 16.845 24.6884 16.435C24.9184 16.0217 25.2334 15.6983 25.6334 15.465C26.0334 15.2317 26.4884 15.115 26.9984 15.115C27.5184 15.115 27.9684 15.2333 28.3484 15.47C28.7284 15.7067 29.0217 16.0283 29.2284 16.435C29.4351 16.8383 29.5384 17.2917 29.5384 17.795C29.5384 17.8383 29.5367 17.8933 29.5334 17.96C29.5334 18.0267 29.5317 18.075 29.5284 18.105H24.7034ZM32.8244 20.595C32.4177 20.595 32.0627 20.5333 31.7594 20.41C31.4561 20.2867 31.2211 20.1083 31.0544 19.875C30.8911 19.6383 30.8094 19.3533 30.8094 19.02C30.8094 18.6833 30.8961 18.4033 31.0694 18.18C31.2427 17.9533 31.4894 17.7767 31.8094 17.65C32.1327 17.5233 32.5144 17.4383 32.9544 17.395C33.6311 17.325 34.1161 17.255 34.4094 17.185C34.7061 17.1117 34.8544 16.995 34.8544 16.835C34.8544 16.825 34.8544 16.815 34.8544 16.805C34.8544 16.7917 34.8544 16.7783 34.8544 16.765C34.8544 16.4217 34.7144 16.155 34.4344 15.965C34.1544 15.775 33.7561 15.68 33.2394 15.68C32.6994 15.68 32.2777 15.7867 31.9744 16C31.6744 16.2133 31.5244 16.53 31.5244 16.95H30.9144C30.9144 16.5667 31.0111 16.2383 31.2044 15.965C31.3977 15.6883 31.6694 15.4783 32.0194 15.335C32.3694 15.1883 32.7777 15.115 33.2444 15.115C33.6644 15.115 34.0427 15.18 34.3794 15.31C34.7161 15.44 34.9827 15.63 35.1794 15.88C35.3794 16.1267 35.4794 16.4317 35.4794 16.795C35.4794 16.865 35.4794 16.935 35.4794 17.005C35.4794 17.0717 35.4794 17.14 35.4794 17.21V19.56C35.4794 19.6733 35.4844 19.7817 35.4944 19.885C35.5044 19.9883 35.5194 20.0783 35.5394 20.155C35.5694 20.2517 35.6011 20.3283 35.6344 20.385C35.6677 20.4417 35.6944 20.48 35.7144 20.5H35.0894C35.0761 20.4867 35.0544 20.4517 35.0244 20.395C34.9944 20.335 34.9644 20.265 34.9344 20.185C34.9077 20.1017 34.8894 20.0083 34.8794 19.905C34.8694 19.8017 34.8644 19.6767 34.8644 19.53L34.9644 19.605C34.8577 19.8017 34.7027 19.975 34.4994 20.125C34.2961 20.2717 34.0527 20.3867 33.7694 20.47C33.4861 20.5533 33.1711 20.595 32.8244 20.595ZM32.9194 20.04C33.2794 20.04 33.6044 19.9817 33.8944 19.865C34.1877 19.745 34.4211 19.575 34.5944 19.355C34.7677 19.1317 34.8544 18.8617 34.8544 18.545V17.305L34.9894 17.535C34.7961 17.6317 34.5327 17.71 34.1994 17.77C33.8661 17.8267 33.5044 17.8733 33.1144 17.91C32.5644 17.9633 32.1461 18.0683 31.8594 18.225C31.5761 18.3817 31.4344 18.6367 31.4344 18.99C31.4344 19.33 31.5594 19.59 31.8094 19.77C32.0594 19.95 32.4294 20.04 32.9194 20.04ZM38.7871 20.58C38.6371 20.58 38.4905 20.5617 38.3471 20.525C38.2071 20.4883 38.0805 20.4233 37.9671 20.33C37.8571 20.2333 37.7705 20.1017 37.7071 19.935C37.6438 19.7683 37.6121 19.5567 37.6121 19.3C37.6121 19.23 37.6121 19.1583 37.6121 19.085C37.6121 19.0083 37.6121 18.9283 37.6121 18.845V15.735H36.3321V15.19H37.2521C37.3388 15.19 37.4071 15.1867 37.4571 15.18C37.5071 15.1733 37.5421 15.1567 37.5621 15.13C37.5855 15.1033 37.5988 15.0617 37.6021 15.005C37.6088 14.9483 37.6121 14.87 37.6121 14.77V13.475H38.2321V15.19H39.9321V15.735H38.2321V18.64C38.2321 18.72 38.2321 18.7967 38.2321 18.87C38.2321 18.9433 38.2321 19.0117 38.2321 19.075C38.2321 19.375 38.2755 19.61 38.3621 19.78C38.4521 19.95 38.6205 20.035 38.8671 20.035C38.9605 20.035 39.0521 20.0267 39.1421 20.01C39.2321 19.9933 39.3005 19.975 39.3471 19.955V20.495C39.2905 20.5183 39.2121 20.5383 39.1121 20.555C39.0121 20.5717 38.9038 20.58 38.7871 20.58ZM43.3511 20.59C42.8311 20.59 42.3711 20.4717 41.9711 20.235C41.5711 19.995 41.2577 19.6667 41.0311 19.25C40.8044 18.8333 40.6911 18.3633 40.6911 17.84C40.6911 17.3133 40.8044 16.845 41.0311 16.435C41.2577 16.025 41.5711 15.7033 41.9711 15.47C42.3711 15.2367 42.8311 15.12 43.3511 15.12C43.8711 15.12 44.3311 15.2367 44.7311 15.47C45.1311 15.7033 45.4444 16.025 45.6711 16.435C45.8977 16.845 46.0111 17.3133 46.0111 17.84C46.0111 18.3633 45.8977 18.8333 45.6711 19.25C45.4444 19.6667 45.1311 19.995 44.7311 20.235C44.3311 20.4717 43.8711 20.59 43.3511 20.59ZM43.3511 20.025C43.7511 20.025 44.1027 19.9317 44.4061 19.745C44.7127 19.5583 44.9527 19.3 45.1261 18.97C45.2994 18.64 45.3861 18.2633 45.3861 17.84C45.3861 17.4133 45.2994 17.0383 45.1261 16.715C44.9527 16.3917 44.7127 16.14 44.4061 15.96C44.1027 15.7767 43.7511 15.685 43.3511 15.685C42.9544 15.685 42.6027 15.7767 42.2961 15.96C41.9894 16.14 41.7494 16.3917 41.5761 16.715C41.4027 17.0383 41.3161 17.4133 41.3161 17.84C41.3161 18.2633 41.4027 18.64 41.5761 18.97C41.7494 19.3 41.9894 19.5583 42.2961 19.745C42.6027 19.9317 42.9544 20.025 43.3511 20.025ZM47.474 20.5V15.19H48.094V16.755L47.874 16.685C47.894 16.5183 47.9424 16.345 48.019 16.165C48.099 15.9817 48.209 15.81 48.349 15.65C48.489 15.49 48.664 15.3617 48.874 15.265C49.0874 15.165 49.3407 15.115 49.634 15.115C49.8474 15.115 50.019 15.1333 50.149 15.17C50.279 15.2067 50.3607 15.235 50.394 15.255L50.224 15.855C50.1907 15.8317 50.1224 15.8017 50.019 15.765C49.9157 15.7283 49.7674 15.71 49.574 15.71C49.294 15.71 49.059 15.765 48.869 15.875C48.679 15.9817 48.5274 16.1217 48.414 16.295C48.3007 16.4683 48.219 16.6533 48.169 16.85C48.119 17.0433 48.094 17.23 48.094 17.41V20.5H47.474Z" fill="black"/>
<path d="M88.3778 21.595C87.8745 21.595 87.4478 21.515 87.0978 21.355C86.7511 21.195 86.4878 20.955 86.3078 20.635C86.1278 20.3117 86.0378 19.91 86.0378 19.43C86.0378 19.3567 86.0378 19.2967 86.0378 19.25C86.0378 19.2033 86.0378 19.1433 86.0378 19.07H86.6578C86.6578 19.14 86.6578 19.1983 86.6578 19.245C86.6578 19.2883 86.6578 19.3467 86.6578 19.42C86.6578 19.9833 86.8028 20.3933 87.0928 20.65C87.3861 20.9067 87.8095 21.035 88.3628 21.035C88.9361 21.035 89.3678 20.9267 89.6578 20.71C89.9478 20.4933 90.0928 20.1617 90.0928 19.715C90.0928 19.405 90.0161 19.1483 89.8628 18.945C89.7095 18.7383 89.4945 18.565 89.2178 18.425C88.9411 18.285 88.6178 18.1567 88.2478 18.04C87.8245 17.9033 87.4511 17.7417 87.1278 17.555C86.8045 17.365 86.5511 17.1317 86.3678 16.855C86.1845 16.5783 86.0928 16.24 86.0928 15.84C86.0928 15.45 86.1845 15.1217 86.3678 14.855C86.5511 14.5883 86.8095 14.3867 87.1428 14.25C87.4795 14.1133 87.8728 14.045 88.3228 14.045C88.8028 14.045 89.2161 14.12 89.5628 14.27C89.9128 14.4167 90.1811 14.6417 90.3678 14.945C90.5545 15.245 90.6478 15.6267 90.6478 16.09C90.6478 16.17 90.6478 16.2383 90.6478 16.295C90.6478 16.3483 90.6478 16.415 90.6478 16.495H90.0278C90.0278 16.4217 90.0278 16.3583 90.0278 16.305C90.0278 16.2517 90.0278 16.1883 90.0278 16.115C90.0278 15.575 89.8811 15.1883 89.5878 14.955C89.2978 14.7217 88.8795 14.605 88.3328 14.605C87.8128 14.605 87.4095 14.705 87.1228 14.905C86.8395 15.105 86.6978 15.4167 86.6978 15.84C86.6978 16.1533 86.7811 16.4133 86.9478 16.62C87.1178 16.8267 87.3478 17.0017 87.6378 17.145C87.9278 17.2883 88.2578 17.4217 88.6278 17.545C89.0645 17.6883 89.4378 17.85 89.7478 18.03C90.0578 18.2067 90.2945 18.4283 90.4578 18.695C90.6211 18.9583 90.7028 19.29 90.7028 19.69C90.7028 20.09 90.6111 20.4333 90.4278 20.72C90.2445 21.0033 89.9795 21.22 89.6328 21.37C89.2861 21.52 88.8678 21.595 88.3778 21.595ZM93.9805 21.59C93.6005 21.59 93.2855 21.5233 93.0355 21.39C92.7888 21.2567 92.5955 21.085 92.4555 20.875C92.3155 20.6617 92.2171 20.4333 92.1605 20.19C92.1071 19.9467 92.0805 19.7183 92.0805 19.505C92.0805 19.3783 92.0805 19.2467 92.0805 19.11C92.0805 18.9733 92.0805 18.8367 92.0805 18.7V16.19H92.7055V18.64C92.7055 18.7667 92.7055 18.8917 92.7055 19.015C92.7055 19.1383 92.7055 19.2567 92.7055 19.37C92.7055 19.6533 92.7471 19.9217 92.8305 20.175C92.9138 20.425 93.0571 20.6283 93.2605 20.785C93.4638 20.9417 93.7405 21.02 94.0905 21.02C94.4205 21.02 94.7105 20.93 94.9605 20.75C95.2105 20.57 95.4055 20.3417 95.5455 20.065C95.6888 19.785 95.7605 19.4983 95.7605 19.205L96.1405 19.36C96.1405 19.6267 96.0905 19.8917 95.9905 20.155C95.8938 20.415 95.7521 20.655 95.5655 20.875C95.3821 21.0917 95.1555 21.265 94.8855 21.395C94.6188 21.525 94.3171 21.59 93.9805 21.59ZM95.7605 21.5V16.19H96.3805V21.5H95.7605ZM98.0277 23.685V16.19H98.6477V23.685H98.0277ZM100.478 21.595C100.071 21.595 99.6944 21.4967 99.3477 21.3C99.0011 21.1033 98.7211 20.8367 98.5077 20.5C98.2977 20.1633 98.1927 19.785 98.1927 19.365C98.1927 19.355 98.1927 19.3467 98.1927 19.34C98.1927 19.3333 98.1927 19.3267 98.1927 19.32L98.6477 19.31C98.6477 19.3167 98.6477 19.3233 98.6477 19.33C98.6477 19.3367 98.6477 19.3433 98.6477 19.35C98.6477 19.65 98.7294 19.9267 98.8927 20.18C99.0561 20.4333 99.2694 20.635 99.5327 20.785C99.7994 20.935 100.088 21.01 100.398 21.01C100.911 21.01 101.333 20.8283 101.663 20.465C101.996 20.0983 102.163 19.5583 102.163 18.845C102.163 18.1283 101.996 17.5883 101.663 17.225C101.333 16.8617 100.911 16.68 100.398 16.68C100.088 16.68 99.7994 16.755 99.5327 16.905C99.2694 17.055 99.0561 17.255 98.8927 17.505C98.7294 17.755 98.6477 18.0317 98.6477 18.335L98.1927 18.32C98.1927 17.9 98.2977 17.5233 98.5077 17.19C98.7211 16.8567 99.0011 16.595 99.3477 16.405C99.6944 16.2117 100.071 16.115 100.478 16.115C100.908 16.115 101.298 16.2217 101.648 16.435C101.998 16.645 102.276 16.9533 102.483 17.36C102.693 17.7667 102.798 18.2617 102.798 18.845C102.798 19.435 102.694 19.935 102.488 20.345C102.284 20.755 102.006 21.0667 101.653 21.28C101.303 21.49 100.911 21.595 100.478 21.595ZM104.258 23.685V16.19H104.878V23.685H104.258ZM106.708 21.595C106.302 21.595 105.925 21.4967 105.578 21.3C105.232 21.1033 104.952 20.8367 104.738 20.5C104.528 20.1633 104.423 19.785 104.423 19.365C104.423 19.355 104.423 19.3467 104.423 19.34C104.423 19.3333 104.423 19.3267 104.423 19.32L104.878 19.31C104.878 19.3167 104.878 19.3233 104.878 19.33C104.878 19.3367 104.878 19.3433 104.878 19.35C104.878 19.65 104.96 19.9267 105.123 20.18C105.287 20.4333 105.5 20.635 105.763 20.785C106.03 20.935 106.318 21.01 106.628 21.01C107.142 21.01 107.563 20.8283 107.893 20.465C108.227 20.0983 108.393 19.5583 108.393 18.845C108.393 18.1283 108.227 17.5883 107.893 17.225C107.563 16.8617 107.142 16.68 106.628 16.68C106.318 16.68 106.03 16.755 105.763 16.905C105.5 17.055 105.287 17.255 105.123 17.505C104.96 17.755 104.878 18.0317 104.878 18.335L104.423 18.32C104.423 17.9 104.528 17.5233 104.738 17.19C104.952 16.8567 105.232 16.595 105.578 16.405C105.925 16.2117 106.302 16.115 106.708 16.115C107.138 16.115 107.528 16.2217 107.878 16.435C108.228 16.645 108.507 16.9533 108.713 17.36C108.923 17.7667 109.028 18.2617 109.028 18.845C109.028 19.435 108.925 19.935 108.718 20.345C108.515 20.755 108.237 21.0667 107.883 21.28C107.533 21.49 107.142 21.595 106.708 21.595ZM112.909 21.59C112.389 21.59 111.929 21.4717 111.529 21.235C111.129 20.995 110.815 20.6667 110.589 20.25C110.362 19.8333 110.249 19.3633 110.249 18.84C110.249 18.3133 110.362 17.845 110.589 17.435C110.815 17.025 111.129 16.7033 111.529 16.47C111.929 16.2367 112.389 16.12 112.909 16.12C113.429 16.12 113.889 16.2367 114.289 16.47C114.689 16.7033 115.002 17.025 115.229 17.435C115.455 17.845 115.569 18.3133 115.569 18.84C115.569 19.3633 115.455 19.8333 115.229 20.25C115.002 20.6667 114.689 20.995 114.289 21.235C113.889 21.4717 113.429 21.59 112.909 21.59ZM112.909 21.025C113.309 21.025 113.66 20.9317 113.964 20.745C114.27 20.5583 114.51 20.3 114.684 19.97C114.857 19.64 114.944 19.2633 114.944 18.84C114.944 18.4133 114.857 18.0383 114.684 17.715C114.51 17.3917 114.27 17.14 113.964 16.96C113.66 16.7767 113.309 16.685 112.909 16.685C112.512 16.685 112.16 16.7767 111.854 16.96C111.547 17.14 111.307 17.3917 111.134 17.715C110.96 18.0383 110.874 18.4133 110.874 18.84C110.874 19.2633 110.96 19.64 111.134 19.97C111.307 20.3 111.547 20.5583 111.854 20.745C112.16 20.9317 112.512 21.025 112.909 21.025ZM117.032 21.5V16.19H117.652V17.755L117.432 17.685C117.452 17.5183 117.5 17.345 117.577 17.165C117.657 16.9817 117.767 16.81 117.907 16.65C118.047 16.49 118.222 16.3617 118.432 16.265C118.645 16.165 118.898 16.115 119.192 16.115C119.405 16.115 119.577 16.1333 119.707 16.17C119.837 16.2067 119.918 16.235 119.952 16.255L119.782 16.855C119.748 16.8317 119.68 16.8017 119.577 16.765C119.473 16.7283 119.325 16.71 119.132 16.71C118.852 16.71 118.617 16.765 118.427 16.875C118.237 16.9817 118.085 17.1217 117.972 17.295C117.858 17.4683 117.777 17.6533 117.727 17.85C117.677 18.0433 117.652 18.23 117.652 18.41V21.5H117.032ZM122.837 21.58C122.687 21.58 122.54 21.5617 122.397 21.525C122.257 21.4883 122.13 21.4233 122.017 21.33C121.907 21.2333 121.82 21.1017 121.757 20.935C121.694 20.7683 121.662 20.5567 121.662 20.3C121.662 20.23 121.662 20.1583 121.662 20.085C121.662 20.0083 121.662 19.9283 121.662 19.845V16.735H120.382V16.19H121.302C121.389 16.19 121.457 16.1867 121.507 16.18C121.557 16.1733 121.592 16.1567 121.612 16.13C121.635 16.1033 121.649 16.0617 121.652 16.005C121.659 15.9483 121.662 15.87 121.662 15.77V14.475H122.282V16.19H123.982V16.735H122.282V19.64C122.282 19.72 122.282 19.7967 122.282 19.87C122.282 19.9433 122.282 20.0117 122.282 20.075C122.282 20.375 122.325 20.61 122.412 20.78C122.502 20.95 122.67 21.035 122.917 21.035C123.01 21.035 123.102 21.0267 123.192 21.01C123.282 20.9933 123.35 20.975 123.397 20.955V21.495C123.34 21.5183 123.262 21.5383 123.162 21.555C123.062 21.5717 122.954 21.58 122.837 21.58ZM125.101 19.105V18.55H129.401L129.281 18.72C129.281 18.7 129.281 18.6833 129.281 18.67C129.281 18.6533 129.281 18.6367 129.281 18.62C129.281 18.2767 129.208 17.9567 129.061 17.66C128.914 17.3633 128.701 17.125 128.421 16.945C128.144 16.765 127.806 16.675 127.406 16.675C126.999 16.675 126.641 16.7683 126.331 16.955C126.021 17.1383 125.779 17.3933 125.606 17.72C125.433 18.0433 125.346 18.42 125.346 18.85C125.346 19.2833 125.431 19.665 125.601 19.995C125.774 20.3217 126.016 20.5767 126.326 20.76C126.636 20.94 126.998 21.03 127.411 21.03C127.714 21.03 127.978 20.9933 128.201 20.92C128.428 20.8433 128.614 20.7433 128.761 20.62C128.911 20.4967 129.024 20.3667 129.101 20.23C129.181 20.09 129.228 19.9583 129.241 19.835H129.856C129.843 20.0317 129.779 20.2333 129.666 20.44C129.556 20.6433 129.398 20.8333 129.191 21.01C128.988 21.1867 128.734 21.33 128.431 21.44C128.131 21.5467 127.784 21.6 127.391 21.6C126.878 21.6 126.421 21.4833 126.021 21.25C125.624 21.0167 125.311 20.695 125.081 20.285C124.854 19.8717 124.741 19.3967 124.741 18.86C124.741 18.32 124.856 17.845 125.086 17.435C125.316 17.0217 125.631 16.6983 126.031 16.465C126.431 16.2317 126.886 16.115 127.396 16.115C127.916 16.115 128.366 16.2333 128.746 16.47C129.126 16.7067 129.419 17.0283 129.626 17.435C129.833 17.8383 129.936 18.2917 129.936 18.795C129.936 18.8383 129.934 18.8933 129.931 18.96C129.931 19.0267 129.929 19.075 129.926 19.105H125.101ZM131.397 21.5V16.19H132.017V17.755L131.797 17.685C131.817 17.5183 131.865 17.345 131.942 17.165C132.022 16.9817 132.132 16.81 132.272 16.65C132.412 16.49 132.587 16.3617 132.797 16.265C133.01 16.165 133.264 16.115 133.557 16.115C133.77 16.115 133.942 16.1333 134.072 16.17C134.202 16.2067 134.284 16.235 134.317 16.255L134.147 16.855C134.114 16.8317 134.045 16.8017 133.942 16.765C133.839 16.7283 133.69 16.71 133.497 16.71C133.217 16.71 132.982 16.765 132.792 16.875C132.602 16.9817 132.45 17.1217 132.337 17.295C132.224 17.4683 132.142 17.6533 132.092 17.85C132.042 18.0433 132.017 18.23 132.017 18.41V21.5H131.397Z" fill="#D8E6EC"/>
<path d="M75.875 12.75L81.125 18L75.875 23.25" stroke="#989898" stroke-width="3" stroke-linecap="round" stroke-linejoin="round"/>
<path d="M67.875 12.75L73.125 18L67.875 23.25" stroke="#B5C1C5" stroke-width="3" stroke-linecap="round" stroke-linejoin="round"/>
</svg>
