<svg width="44" height="41" viewBox="0 0 44 41" fill="none" xmlns="http://www.w3.org/2000/svg">
<path d="M33.9751 28.5337C31.9223 31.1962 28.9189 33.0712 25.5166 33.8144C22.1142 34.5575 18.5417 34.1188 15.4551 32.5787C12.3686 31.0388 9.97538 28.5011 8.71525 25.4318C7.45512 22.3624 7.41266 18.9678 8.59571 15.8713C9.77875 12.7748 12.1078 10.1846 15.155 8.57657C18.2022 6.96851 21.7629 6.4506 25.1828 7.11796C28.6027 7.78534 31.6522 9.59318 33.7712 12.2094C35.8899 14.8255 36.9358 18.0743 36.7164 21.3587M36.7164 21.3587L39.4358 18.7962M36.7164 21.3587L33.9971 18.7962" stroke="#D8E6EC" stroke-width="3" stroke-linecap="round" stroke-linejoin="round"/>
<path d="M22.2422 13.667V20.5003L27.681 25.6253" stroke="#D8E6EC" stroke-width="3" stroke-linecap="round" stroke-linejoin="round"/>
</svg>
