<svg width="30" height="30" viewBox="0 0 30 30" fill="none" xmlns="http://www.w3.org/2000/svg">
<path d="M30 19.875C30 16.375 28.125 13.625 25.375 12.25C26.625 11 27.5 9.375 27.5 7.5C27.5 4 24.75 1.25 21.25 1.25C18.625 1.25 16.5 2.75 15.5 5C15.375 5 15.125 5 15 5C14.875 5 14.625 5 14.5 5C13.5 2.75 11.375 1.25 8.75 1.25C5.25 1.25 2.5 4 2.5 7.5C2.5 9.375 3.375 11 4.625 12.25C1.875 13.625 0 16.5 0 19.875V25H6.25V28.75H23.75V25H30V19.875ZM21.25 3.75C23.375 3.75 25 5.375 25 7.5C25 9.5 23.375 11.25 21.25 11.25C21.25 8.875 19.875 6.875 17.875 5.75C18.5 4.5 19.75 3.75 21.25 3.75ZM18.75 11.25C18.75 13.375 17.125 15 15 15C12.875 15 11.25 13.375 11.25 11.25C11.25 9.125 12.875 7.5 15 7.5C17.125 7.5 18.75 9.125 18.75 11.25ZM8.75 3.75C10.25 3.75 11.5 4.5 12.125 5.75C10.125 6.875 8.75 8.875 8.75 11.25C6.625 11.25 5 9.625 5 7.5C5 5.375 6.625 3.75 8.75 3.75ZM6.375 22.5H2.5V19.875C2.5 16.375 5.125 13.75 8.75 13.75C8.875 13.75 9 13.75 9.125 13.75C9.5 14.625 10.125 15.375 10.75 16C8.375 17.25 6.75 19.625 6.375 22.5ZM21.25 26.25H8.75V23.625C8.75 20.125 11.5 17.5 15 17.5C18.625 17.5 21.25 20.125 21.25 23.625V26.25ZM27.5 22.5H23.625C23.25 19.625 21.5 17.25 19 16C19.75 15.375 20.25 14.625 20.625 13.75C20.75 13.75 20.875 13.75 21.125 13.75C24.75 13.75 27.375 16.375 27.375 19.875V22.5H27.5Z" fill="white"/>
</svg>
