<svg width="35" height="41" viewBox="0 0 35 41" fill="none" xmlns="http://www.w3.org/2000/svg">
<path d="M18.7891 4.4277C18.2846 3.32911 16.7154 3.32911 16.2108 4.4277L3.08581 32.9842C2.96766 33.2402 2.90909 33.527 2.9158 33.8168C2.92251 34.1066 2.99427 34.3894 3.1241 34.6378C3.25393 34.8861 3.43738 35.0914 3.6566 35.2338C3.87582 35.3762 4.12332 35.4507 4.37498 35.4502H30.625C30.8765 35.4508 31.1238 35.3763 31.3429 35.234C31.5619 35.0917 31.7453 34.8865 31.875 34.6383C32.0046 34.3901 32.0763 34.1074 32.0829 33.8178C32.0895 33.5282 32.0309 33.2416 31.9127 32.9859L18.7891 4.4277ZM18.9583 30.4108H16.0416V27.0512H18.9583V30.4108ZM16.0416 23.6916V15.2926H18.9583L18.9598 23.6916H16.0416Z" fill="#252133"/>
</svg>
