<svg width="20" height="20" viewBox="0 0 20 20" fill="none" xmlns="http://www.w3.org/2000/svg">
<path d="M18.1299 14.5911C18.5617 13.6954 18.7736 12.7096 18.748 11.7156C18.7224 10.7216 18.46 9.74808 17.9826 8.87585C17.5052 8.00362 16.8266 7.25788 16.0031 6.70058C15.1796 6.14328 14.235 5.7905 13.2478 5.67154C12.9177 4.91022 12.4392 4.22227 11.8404 3.64782C11.2415 3.07337 10.5343 2.62393 9.75986 2.32572C8.98546 2.02751 8.15944 1.8865 7.32997 1.91091C6.5005 1.93532 5.68419 2.12467 4.92868 2.4679C4.17316 2.81114 3.49356 3.3014 2.92952 3.91007C2.36549 4.51874 1.92831 5.23364 1.64349 6.01306C1.35867 6.79248 1.23192 7.62081 1.27063 8.44974C1.30934 9.27866 1.51273 10.0916 1.86894 10.8411L1.30097 12.7715C1.23747 12.987 1.23322 13.2157 1.28868 13.4334C1.34414 13.6511 1.45725 13.8499 1.61612 14.0087C1.77498 14.1676 1.97373 14.2807 2.19145 14.3362C2.40917 14.3916 2.63781 14.3874 2.85332 14.3239L4.78378 13.7559C5.40318 14.0557 6.06834 14.2498 6.75175 14.3301C7.08346 15.1072 7.56929 15.809 8.17988 16.393C8.79047 16.977 9.51313 17.4312 10.3042 17.728C11.0953 18.0249 11.9383 18.1582 12.7824 18.1201C13.6264 18.0819 14.454 17.873 15.215 17.5059L17.1455 18.0739C17.361 18.1374 17.5897 18.1416 17.8074 18.0862C18.0251 18.0307 18.2238 17.9176 18.3827 17.7587C18.5416 17.5999 18.6547 17.4011 18.7101 17.1834C18.7656 16.9657 18.7613 16.737 18.6978 16.5215L18.1299 14.5911ZM10.3119 11.8754C10.1265 11.8754 9.94523 11.8205 9.79106 11.7174C9.63689 11.6144 9.51673 11.468 9.44577 11.2967C9.37481 11.1254 9.35625 10.9369 9.39242 10.755C9.4286 10.5732 9.51788 10.4061 9.649 10.275C9.78011 10.1439 9.94715 10.0546 10.129 10.0185C10.3109 9.98228 10.4994 10.0008 10.6707 10.0718C10.842 10.1428 10.9884 10.2629 11.0914 10.4171C11.1944 10.5713 11.2494 10.7525 11.2494 10.9379C11.2494 11.1866 11.1506 11.425 10.9748 11.6009C10.799 11.7767 10.5605 11.8754 10.3119 11.8754ZM6.24941 11.8754C6.24984 12.2501 6.28383 12.624 6.35097 12.9926C5.92936 12.8938 5.52251 12.7401 5.14082 12.5356C4.99698 12.4586 4.82875 12.441 4.67207 12.4864L2.49941 13.1254L3.13769 10.9567C3.18309 10.8 3.16542 10.6318 3.08847 10.4879C2.44812 9.32617 2.29551 7.9576 2.66421 6.68331C3.0329 5.40901 3.89272 4.33337 5.05449 3.69302C6.21626 3.05267 7.58483 2.90006 8.85912 3.26876C10.1334 3.63745 11.2091 4.49726 11.8494 5.65904C10.3135 5.82174 8.89193 6.54657 7.85817 7.69412C6.8244 8.84168 6.25142 10.3309 6.24941 11.8754ZM14.6869 11.8754C14.5015 11.8754 14.3202 11.8205 14.1661 11.7174C14.0119 11.6144 13.8917 11.468 13.8208 11.2967C13.7498 11.1254 13.7312 10.9369 13.7674 10.755C13.8036 10.5732 13.8929 10.4061 14.024 10.275C14.1551 10.1439 14.3222 10.0546 14.504 10.0185C14.6859 9.98228 14.8744 10.0008 15.0457 10.0718C15.217 10.1428 15.3634 10.2629 15.4664 10.4171C15.5694 10.5713 15.6244 10.7525 15.6244 10.9379C15.6244 11.1866 15.5256 11.425 15.3498 11.6009C15.174 11.7767 14.9355 11.8754 14.6869 11.8754Z" fill="black"/>
</svg>
